<svg xmlns="http://www.w3.org/2000/svg" viewBox="0 0 517.3 517.3"><defs><style>.cls-1{fill:#1d1d1b;}</style></defs><g id="Layer_2" data-name="Layer 2"><g id="Ñëîé_1" data-name="Ñëîé 1"><path class="cls-1" d="M142.14,248.75a29,29,0,0,0,24,45.22A28.72,28.72,0,0,0,187,285.06l14.15-14.8a14,14,0,0,1,6.55-3.31l59.74-7.59a13.71,13.71,0,0,1,7.17,1.56L292,271.71a29,29,0,0,0,34.35-46.37A29,29,0,0,0,281.52,189l-14.16,14.8a14.13,14.13,0,0,1-6.55,3.31l-59.75,7.59a13.82,13.82,0,0,1-7.16-1.57l-17.4-10.78a29,29,0,0,0-34.36,46.37ZM148,218.8a15.62,15.62,0,0,1,21.5-5.09l17.4,10.79A27.68,27.68,0,0,0,202.75,228l59.73-7.59A27,27,0,0,0,277,213.05l14.15-14.79a15.62,15.62,0,1,1,22.54,21.63l-2,2.09A6.67,6.67,0,0,0,313,232.27l2.46,1.52A15.62,15.62,0,1,1,299,260.37l-17.39-10.78a27.59,27.59,0,0,0-15.88-3.46L206,253.72a26.89,26.89,0,0,0-14.52,7.33l-14.14,14.78a15.62,15.62,0,1,1-22.55-21.63l2-2.09a6.66,6.66,0,0,0-1.32-10.29l-2.46-1.52A15.64,15.64,0,0,1,148,218.8Z"/><path class="cls-1" d="M508.62,174.53l-13.77-5.71a21.19,21.19,0,0,1-9.46-9.47l-5.72-13.77c-2.78-6.71-9.95-13.88-16.67-16.67l-13.76-5.71a21.17,21.17,0,0,1-9.46-9.46L434.06,100c-2.79-6.71-9.95-13.87-16.66-16.66l-13.78-5.72a21.17,21.17,0,0,1-9.47-9.47l-5.72-13.77c-2.79-6.72-10-13.89-16.67-16.67L358,31.94c-3.44-1.43-8-6-9.46-9.47L342.78,8.69C340.56,3.33,336,0,330.77,0A14,14,0,0,0,321,4.3l-34.32,34a64.77,64.77,0,0,1-14.38,10C229,68.94,185.62,99.68,146.76,137.15c-4,3.87-10.44,10.29-14.31,14.31C95,190.31,64.24,233.73,43.54,277a64.54,64.54,0,0,1-9.95,14.38L4.3,321A13.44,13.44,0,0,0,.24,333.14c.85,4.25,3.93,7.76,8.44,9.64l13.79,5.72A21.24,21.24,0,0,1,31.94,358l5.73,13.78c2.79,6.71,9.95,13.88,16.67,16.67l13.77,5.71a21.26,21.26,0,0,1,9.47,9.47l5.72,13.78c2.79,6.71,10,13.88,16.67,16.67l13.77,5.71a21.19,21.19,0,0,1,9.46,9.47L128.92,463c2.78,6.72,10,13.89,16.67,16.67l13.76,5.72a21.12,21.12,0,0,1,9.46,9.46l5.72,13.77c2.22,5.35,6.82,8.68,12,8.68a14,14,0,0,0,9.78-4.32l29.55-29.33a63.5,63.5,0,0,1,14.35-10c43.28-20.71,86.69-51.45,125.55-88.92,4-3.87,10.43-10.29,14.31-14.31,37.47-38.87,68.21-82.27,88.9-125.54a64.18,64.18,0,0,1,10-14.34L513,196.31a12.84,12.84,0,0,0-4.36-21.78Zm-5.1,12.38-34,34.27a76.93,76.93,0,0,0-12.53,18c-20.09,42-50,84.19-86.48,122-3.78,3.92-10.05,10.19-14,14-37.83,36.48-80,66.39-122,86.48a77.2,77.2,0,0,0-18,12.53l-29.54,29.33,0,.05a.14.14,0,0,1,0-.06l-5.72-13.77c-2.79-6.72-10-13.88-16.67-16.67l-13.76-5.71a21.12,21.12,0,0,1-9.47-9.47l-5.71-13.76c-2.79-6.71-10-13.88-16.67-16.67l-13.77-5.71a21.26,21.26,0,0,1-9.47-9.47L89.89,398.5c-2.79-6.72-10-13.88-16.67-16.67l-13.76-5.71A21.21,21.21,0,0,1,50,366.64l-5.73-13.78c-2.78-6.71-10-13.88-16.67-16.67L13.8,330.47l-.09,0,.07-.07,29.29-29.61a78.13,78.13,0,0,0,12.5-18c20.08-42,50-84.2,86.47-122,3.79-3.92,10.06-10.19,14-14,37.83-36.48,80-66.38,122-86.47a77.79,77.79,0,0,0,18-12.51l34.33-34,.06-.06a.59.59,0,0,0,0,.08l5.72,13.78c2.79,6.72,10,13.89,16.67,16.67L366.65,50a21.26,21.26,0,0,1,9.47,9.47l5.71,13.77c2.79,6.71,10,13.88,16.67,16.67l13.78,5.72a21.17,21.17,0,0,1,9.47,9.47l5.71,13.77c2.79,6.72,10,13.88,16.67,16.67l13.76,5.7a21.26,21.26,0,0,1,9.47,9.47l5.71,13.77c2.79,6.71,9.95,13.88,16.67,16.67l13.77,5.71.06,0Z"/><path class="cls-1" d="M244.35,415.39a6.68,6.68,0,0,0-9.14,2.32q-3.51,5.91-6.78,11.82A6.66,6.66,0,1,0,240.09,436q3.18-5.73,6.58-11.46A6.67,6.67,0,0,0,244.35,415.39Z"/><path class="cls-1" d="M423.55,233.84c-38.25,21.34-76.34,50.48-110.14,84.28a526.6,526.6,0,0,0-63.89,77.06,6.67,6.67,0,0,0,11,7.47,512.79,512.79,0,0,1,62.27-75.1c32.94-32.94,70-61.32,107.21-82.07a6.67,6.67,0,0,0-6.5-11.64Z"/><path class="cls-1" d="M66.31,296.6A6.66,6.66,0,0,0,56.89,306l154.29,154.3a6.67,6.67,0,1,0,9.43-9.43Z"/><path class="cls-1" d="M303.41,59.51A6.66,6.66,0,0,0,294,68.93l154.29,154.3a6.67,6.67,0,1,0,9.43-9.43Z"/></g></g></svg>