<svg xmlns="http://www.w3.org/2000/svg" viewBox="0 0 468.33 427.71"><defs><style>.cls-1{fill:#1d1d1b;}</style></defs><g id="Layer_2" data-name="Layer 2"><g id="Ñëîé_1" data-name="Ñëîé 1"><path class="cls-1" d="M440.05,360.2H431.1V171.29a6.67,6.67,0,0,0-13.34,0V360.2H314.25V276.6a80.08,80.08,0,1,0-160.16,0v83.6H50.57V171.29a6.67,6.67,0,1,0-13.33,0V360.2h-9A15.7,15.7,0,0,0,12.6,375.89V412a15.69,15.69,0,0,0,15.68,15.68H440.05A15.69,15.69,0,0,0,455.73,412V375.89A15.7,15.7,0,0,0,440.05,360.2ZM167.42,276.6a66.75,66.75,0,1,1,133.49,0v83.6H167.42ZM442.4,412a2.35,2.35,0,0,1-2.35,2.35H28.28A2.35,2.35,0,0,1,25.93,412V375.89a2.35,2.35,0,0,1,2.35-2.35H440.05a2.35,2.35,0,0,1,2.35,2.35Z"/><path class="cls-1" d="M398.51,158.33H69.82a6.67,6.67,0,0,0,0,13.33H398.51a6.67,6.67,0,0,0,0-13.33Z"/><path class="cls-1" d="M57,232.26a6.67,6.67,0,0,0,6.67,6.67h84.6a6.67,6.67,0,0,0,0-13.33H63.69A6.67,6.67,0,0,0,57,232.26Z"/><path class="cls-1" d="M404.64,225.6H320a6.67,6.67,0,0,0,0,13.33h84.6a6.67,6.67,0,1,0,0-13.33Z"/><path class="cls-1" d="M63.69,305.5h77.6a6.67,6.67,0,1,0,0-13.34H63.69a6.67,6.67,0,0,0,0,13.34Z"/><path class="cls-1" d="M404.64,292.16H327a6.67,6.67,0,0,0,0,13.34h77.6a6.67,6.67,0,1,0,0-13.34Z"/><path class="cls-1" d="M456.25,120.31,244.59,2.89a23.85,23.85,0,0,0-22.82,0L12,120.32a23.43,23.43,0,1,0,22.89,40.9L231.63,51.13a4,4,0,0,1,1.65-.29,3.84,3.84,0,0,1,1.63.29L433.52,161.3a23.44,23.44,0,1,0,22.73-41Zm-2.53,25.39A10.32,10.32,0,0,1,440,149.64L241.38,39.47a17.76,17.76,0,0,0-16.26,0L28.39,149.59a10.26,10.26,0,0,1-4.92,1.29,10.11,10.11,0,0,1-5-18.93L228.28,14.56a10.29,10.29,0,0,1,9.84,0L449.79,132a10.09,10.09,0,0,1,3.93,13.73Z"/></g></g></svg>