<svg xmlns="http://www.w3.org/2000/svg" viewBox="0 0 366.34 484.75"><defs><style>.cls-1{fill:#1d1d1b;}</style></defs><g id="Layer_2" data-name="Layer 2"><g id="Ñëîé_1" data-name="Ñëîé 1"><path class="cls-1" d="M29.77,484.75h306.8a29.76,29.76,0,0,0,5.08-59.08V200.85a123.64,123.64,0,0,0-123.5-123.5H189.84v-12a33,33,0,1,0-13.34,0v12H148.19a123.64,123.64,0,0,0-123.5,123.5V425.67a29.76,29.76,0,0,0,5.08,59.08ZM183.17,90.68A51.84,51.84,0,0,1,235,142.47v62.12H131.39V142.47A51.84,51.84,0,0,1,183.17,90.68ZM235,217.92v123.2H131.39V217.92Zm93.37,123.2h-80V217.92h80Zm-210.27,0H38V217.92h80Zm0,13.33v70.76H38V354.45Zm13.34,0H235v70.76H131.39Zm116.9,0h80v70.76h-80Zm80-153.6v3.74h-80V142.47a65,65,0,0,0-25.65-51.68A110.29,110.29,0,0,1,328.32,200.85ZM163.52,33a19.66,19.66,0,1,1,19.65,19.65A19.67,19.67,0,0,1,163.52,33ZM143.7,90.79a65,65,0,0,0-25.65,51.68v62.12H38v-3.74A110.29,110.29,0,0,1,143.7,90.79ZM29.77,438.54h306.8a16.44,16.44,0,0,1,0,32.88H29.77a16.44,16.44,0,0,1,0-32.88Z"/></g></g></svg>