<svg xmlns="http://www.w3.org/2000/svg" viewBox="0 0 349.66 432.19"><defs><style>.cls-1{fill:#1d1d1b;}</style></defs><g id="Layer_2" data-name="Layer 2"><g id="Ñëîé_1" data-name="Ñëîé 1"><path class="cls-1" d="M236.64,324.07h-30a6.67,6.67,0,0,0,0,13.33h30a6.67,6.67,0,1,0,0-13.33Z"/><path class="cls-1" d="M254.68,251.3h-4c.07-1,.16-2,.16-3a43.11,43.11,0,0,0-32.94-42.05c-1-17.69-13.77-24.21-23.31-29.1-11.11-5.69-17.23-8.83-13.27-24.36a6.67,6.67,0,0,0-10.17-7.18c-30,20.12-20.23,44.26-15.52,55.86.44,1.09,1,2.38,1.4,3.54H142.13A43.34,43.34,0,0,0,98.84,248.3c0,1,.09,2,.16,3H95A53.67,53.67,0,0,0,45.1,324.88a54,54,0,0,0,9,107.31H295.59a54,54,0,0,0,9-107.31,53.67,53.67,0,0,0-49.88-73.58Zm81.64,126.83a40.77,40.77,0,0,1-40.73,40.73H54.06a40.73,40.73,0,0,1,0-81.46h88.42a6.67,6.67,0,0,0,0-13.33h-83A40.23,40.23,0,0,1,95,264.63h28.34a6.67,6.67,0,1,0,0-13.33h-11c-.09-1-.15-2-.15-3a30,30,0,0,1,29.95-30H157.3c2.15.08,8.67.26,12.08-4.65,3.52-5.07,1.12-11-1.43-17.24-3.67-9-7.72-19-.56-29.38,2.56,12.46,12.92,17.76,21.09,21.94,11.26,5.77,17.08,9.38,16,22.3a6.66,6.66,0,0,0,6,7.18,29.83,29.83,0,0,1,27,29.81c0,1-.06,2-.16,3H196.64a6.67,6.67,0,0,0,0,13.33h58a40.26,40.26,0,0,1,35.52,59.44h-6.06a6.67,6.67,0,0,0,0,13.33h11.45A40.77,40.77,0,0,1,336.32,378.13Z"/><path class="cls-1" d="M159.14,251.3h-12.5a6.67,6.67,0,1,0,0,13.33h12.5a6.67,6.67,0,1,0,0-13.33Z"/><path class="cls-1" d="M91.79,42.7a6.67,6.67,0,0,0-10.71,7.94C95,69.43,89.43,77.29,81.7,88.16c-8.42,11.86-18.91,26.62.79,53.18A6.67,6.67,0,1,0,93.2,133.4c-13.93-18.79-8.35-26.64-.63-37.52C101,84,111.48,69.26,91.79,42.7Z"/><path class="cls-1" d="M166.44,101.34a6.67,6.67,0,1,0,10.71-7.94c-13.93-18.79-8.35-26.64-.63-37.52C185,44,195.43,29.26,175.74,2.7A6.67,6.67,0,0,0,165,10.64c13.93,18.79,8.35,26.65.62,37.52C157.23,60,146.75,74.78,166.44,101.34Z"/><path class="cls-1" d="M250.39,141.34a6.67,6.67,0,1,0,10.71-7.94c-13.93-18.79-8.35-26.64-.62-37.52,8.42-11.86,18.9-26.62-.79-53.18A6.67,6.67,0,0,0,249,50.64c13.93,18.79,8.35,26.65.63,37.52C241.18,100,230.7,114.78,250.39,141.34Z"/></g></g></svg>