<svg xmlns="http://www.w3.org/2000/svg" viewBox="0 0 521.52 484.75"><defs><style>.cls-1{fill:#1d1d1b;}</style></defs><g id="Layer_2" data-name="Layer 2"><g id="Ñëîé_1" data-name="Ñëîé 1"><path class="cls-1" d="M254.87,119.23a177.86,177.86,0,0,0-63,12c-2.44.93-4.8,1.89-7.16,2.86L65,11.42a37.88,37.88,0,1,0-54.2,52.92L120.35,176.59a105.28,105.28,0,0,0-22.72,39.55c-.81,2.63-1.49,5.27-2.08,7.91-9.37,22.78-27.89,110.84,14.89,150l116.35,99.5a29.87,29.87,0,0,0,23.54,11.21h0A28.78,28.78,0,0,0,264,481.36l244.76-132.3a23.22,23.22,0,0,0,7.6-35.33C441.09,215.32,358.9,119.23,254.87,119.23ZM20.71,20.31a24.84,24.84,0,0,1,17.44-7,24.39,24.39,0,0,1,17.27,7.4L171.68,139.81c-16.54,7.92-30.56,17-41.94,27.31L20.3,55A24.57,24.57,0,0,1,20.71,20.31ZM97.48,279a139.23,139.23,0,0,0,19.94,43c5.43,7.75,44.68,62.11,75.93,105.35l-74.08-63.36C98.9,345.42,95,310,97.48,279ZM508,330.39a10.49,10.49,0,0,1-5.55,6.94L257.66,469.63a15.46,15.46,0,0,1-7.33,1.79h0a16.69,16.69,0,0,1-13.42-6.52C213.4,432.39,136.08,325.45,128.33,314.4c-15.79-22.52-28.8-59.14-18-94.34,10.13-32.9,39.13-58.61,86.19-76.41a164.71,164.71,0,0,1,58.31-11.08c98,0,177.66,93.49,250.9,189.26A10.46,10.46,0,0,1,508,330.39Z"/><path class="cls-1" d="M341.78,210.14c-55.48-20.41-108.85-17.42-158.64,8.9-28.74,15.2-50.95,32.89-66,52.6a6.67,6.67,0,1,0,10.59,8.1c13.9-18.17,34.65-34.62,61.67-48.91,107.94-57.08,208.73,14,284.49,82.26a6.67,6.67,0,0,0,8.93-9.91C430.15,255.74,385.35,226.18,341.78,210.14Z"/><path class="cls-1" d="M456.75,318.4,245.24,432.73a6.67,6.67,0,0,0,3.18,12.53,6.57,6.57,0,0,0,3.16-.8L463.09,330.13a6.67,6.67,0,1,0-6.34-11.73Z"/><path class="cls-1" d="M38.94,31.4a6.71,6.71,0,1,0,6.67,6.74V38A6.6,6.6,0,0,0,38.94,31.4Z"/></g></g></svg>