<svg xmlns="http://www.w3.org/2000/svg" viewBox="0 0 347.83 319.42"><defs><style>.cls-1{fill:#1d1d1b;}</style></defs><g id="Layer_2" data-name="Layer 2"><g id="Ñëîé_1" data-name="Ñëîé 1"><path class="cls-1" d="M110.7,318.13h0c1.33,0,2.67-.06,4-.16,17.37-1.34,29.17-7.65,42.83-15l1.9-1a35.6,35.6,0,0,1,16.44-4.09c4.45,0,10.87.89,16.2,5.13,13.12,10.41,28.81,16.39,43.07,16.39,11.1,0,47.33-4.52,47.33-62.54C282.5,186,233,128.3,172.1,128.3S61.69,186,61.69,256.88C61.69,293.51,81.39,318.13,110.7,318.13Zm61.4-176.5c53.52,0,97.07,51.7,97.07,115.25,0,31.27-12.4,49.2-34,49.2-11.3,0-24-4.92-34.78-13.49-6.6-5.24-15.07-8-24.49-8a49.1,49.1,0,0,0-22.72,5.66l-1.91,1c-12.85,6.87-23,12.3-37.57,13.43-1,.07-2,.11-3,.11h0C89,304.79,75,286,75,256.88,75,193.33,118.57,141.63,172.1,141.63Z"/><path class="cls-1" d="M32.92,80.17C9.72,84.68-4.47,112.41,1.28,142c5.2,26.7,24.51,46.09,45.93,46.09a33.82,33.82,0,0,0,6.58-.64C65.38,185.19,75,177.27,81,165.15c5.61-11.5,7.2-25.54,4.48-39.53-5.2-26.7-24.52-46.09-45.94-46.09A34.51,34.51,0,0,0,32.92,80.17Zm39.42,48c2.17,11.16,1,22.22-3.37,31.13-4,8.27-10.34,13.62-17.73,15.06a21.75,21.75,0,0,1-4,.38c-14.81,0-28.93-15.17-32.84-35.3C10,117.08,19.48,96.37,35.47,93.25a21.64,21.64,0,0,1,4-.38C54.3,92.87,68.43,108,72.34,128.17Z"/><path class="cls-1" d="M297,191.34c19.61,0,38.95-16.22,47-39.45,9.9-28.45-.21-57.93-22.53-65.69a34.69,34.69,0,0,0-11.41-1.92c-19.61,0-38.95,16.22-47,39.45-4.68,13.46-5.1,27.58-1.18,39.76,4.14,12.85,12.56,22.06,23.71,25.93A34.73,34.73,0,0,0,297,191.34ZM274.57,159.4c-3-9.43-2.65-20.55,1.09-31.29,6.24-18,20.4-30.49,34.43-30.49a21.34,21.34,0,0,1,7,1.17c15.38,5.35,21.8,27.21,14.32,48.72C325.19,165.47,311,178,297,178a21.39,21.39,0,0,1-7-1.18C282.86,174.36,277.39,168.17,274.57,159.4Z"/><path class="cls-1" d="M75.82,64.33c3.49,30.69,24.35,53.84,48.51,53.84a36.65,36.65,0,0,0,4.19-.24c12.65-1.44,23.69-9.14,31.1-21.69,7-11.95,10-27,8.22-42.37C164.35,23.18,143.5,0,119.33,0a36.48,36.48,0,0,0-4.18.24C89.78,3.16,72.14,31.9,75.82,64.33Zm40.83-50.8a22.14,22.14,0,0,1,2.68-.16c17.1,0,32.59,18.45,35.26,42,1.43,12.51-.87,24.62-6.45,34.08-5.23,8.87-12.73,14.27-21.13,15.22-18.16,2.06-35.12-17.08-37.94-41.86C86.21,37.7,98.59,15.58,116.65,13.53Z"/><path class="cls-1" d="M181.71,54.51c-1.53,15.4,1.6,30.41,8.81,42.25,7.59,12.45,18.74,20,31.4,21.26,1.23.12,2.46.18,3.67.18,24.43,0,45.18-23.44,48.28-54.52,3.23-32.48-14.81-61-40.22-63.49C207.77-2.39,185,21.89,181.71,54.51Zm78.89,7.85c-2.48,24.92-19.15,44.19-37.36,42.39-8.4-.83-16-6.13-21.33-14.92-5.72-9.39-8.18-21.46-6.93-34,2.37-23.83,17.75-42.49,35-42.49a22.92,22.92,0,0,1,2.34.12C250.42,15.26,263.1,37.2,260.6,62.36Z"/></g></g></svg>