<svg xmlns="http://www.w3.org/2000/svg" viewBox="0 0 447.51 256.45"><defs><style>.cls-1{fill:#1d1d1b;}</style></defs><g id="Layer_2" data-name="Layer 2"><g id="Ñëîé_1" data-name="Ñëîé 1"><path class="cls-1" d="M327.05,156.86a6.66,6.66,0,0,0,9.05-2.66c6.76-12.4,8.25-30.2,3.63-43.29a34,34,0,0,0-19.23-20.5A41,41,0,0,0,270.74,108a34.07,34.07,0,0,0-2.09,28c3.6,10.18,12.11,20.62,22.2,27.23a6.67,6.67,0,0,0,7.31-11.15c-7.65-5-14.3-13.08-16.93-20.53a20.63,20.63,0,0,1,1.2-17.2,27.7,27.7,0,0,1,33-11.65,20.66,20.66,0,0,1,11.75,12.62c3.34,9.48,2.16,23.44-2.77,32.47A6.67,6.67,0,0,0,327.05,156.86Z"/><path class="cls-1" d="M215.5,91.4c-79.8,0-138.92,53.8-143.76,130.84A6.67,6.67,0,0,0,78,229.31h.42a6.67,6.67,0,0,0,6.65-6.25c4.38-69.68,58-118.34,130.45-118.34a210.18,210.18,0,0,1,37.43,3.55,6.67,6.67,0,1,0,2.39-13.12A222.82,222.82,0,0,0,215.5,91.4Z"/><path class="cls-1" d="M74.09,256.45q2.88,0,5.93-.09c25.75-.84,328.72,0,331.8,0,17,0,27.76-4.05,32.81-12.38,4.53-7.45,3.71-17.23-2.44-29.06-14.14-27.18-44-56-82-79a6.67,6.67,0,1,0-6.91,11.4c36,21.8,64.08,48.69,77.12,73.77,3.74,7.2,4.77,12.88,2.88,16-1.36,2.22-5.93,6-21.4,6-12.5,0-306.27-.84-332.26,0-42.19,1.35-57.2-12.72-62.38-21.25A26.76,26.76,0,0,1,17,194.44,29.78,29.78,0,0,1,43.4,179.31a6.67,6.67,0,1,0,0-13.33,43,43,0,0,0-38,21.92,40,40,0,0,0,.4,40.8C12.21,239.26,29.49,256.46,74.09,256.45Z"/><path class="cls-1" d="M280.26,31.91A31.87,31.87,0,0,0,222.9,12.75a31.92,31.92,0,1,0-6.67,44.9V79.51a6.67,6.67,0,1,0,13.34,0V57.64a31.61,31.61,0,0,0,18.78,6.18A31.94,31.94,0,0,0,280.26,31.91ZM197.45,50.49A18.58,18.58,0,1,1,216,31.91,18.61,18.61,0,0,1,197.45,50.49Zm50.9,0a18.58,18.58,0,1,1,18.58-18.58A18.6,18.6,0,0,1,248.35,50.49Z"/><path class="cls-1" d="M373.65,192.25a6.67,6.67,0,0,0-6.67-6.67h0a6.67,6.67,0,1,0,6.7,6.67Z"/></g></g></svg>