<svg xmlns="http://www.w3.org/2000/svg" viewBox="0 0 414.54 373.24"><defs><style>.cls-1{fill:#1d1d1b;}</style></defs><g id="Layer_2" data-name="Layer 2"><g id="Ñëîé_1" data-name="Ñëîé 1"><path class="cls-1" d="M15.2,67.47a5.33,5.33,0,0,0-.4.42C0,86.74,0,118.81,0,136c0,66,71.38,113.7,177,121.34,0,.37-.07.73-.07,1.1a30.47,30.47,0,0,0,23.71,29.66l.1,10.54h-28a30.5,30.5,0,1,0-51.89,22.38,30.49,30.49,0,1,0,51.89,22.37h68.38A30.49,30.49,0,1,0,293,321.05a30.49,30.49,0,1,0-51.88-22.38H214.07L214,288.16a30.48,30.48,0,0,0,23.81-29.69c0-.37-.06-.74-.07-1.11C343.24,249.67,414.54,202,414.54,136c0-17.26,0-49.39-15-68.37a2.2,2.2,0,0,0-.26-.27C378.71,28.29,301.75,0,207.27,0S35.72,28.33,15.2,67.47ZM248.62,312a6.67,6.67,0,0,0,6.46-8.35,16.72,16.72,0,0,1-.6-4.31A17.16,17.16,0,1,1,278.7,315a6.66,6.66,0,0,0,0,12.14,17.16,17.16,0,1,1-24.22,15.62,16.77,16.77,0,0,1,.6-4.31,6.67,6.67,0,0,0-6.46-8.34H165.29a6.67,6.67,0,0,0-6.45,8.34,17.14,17.14,0,1,1-23.62-11.31,6.67,6.67,0,0,0,0-12.14,17.29,17.29,0,1,1,23.62-11.32,6.67,6.67,0,0,0,6.45,8.35Zm-24.16-53.54a17.1,17.1,0,1,1-34.2,0c0-.12,0-.24,0-.37,5.59.23,11.24.37,17,.37s11.52-.15,17.16-.37C224.44,258.22,224.46,258.35,224.46,258.47Zm-17.19-13.33C94.9,245.14,13.33,199.25,13.33,136a240.18,240.18,0,0,1,1.23-27.86C34.08,148,111.71,176.9,207.27,176.9S380.45,148,400,108.19A237.81,237.81,0,0,1,401.21,136C401.21,199.25,319.65,245.14,207.27,245.14ZM391.44,88.45c0,40.72-84.34,75.12-184.17,75.12S23.11,129.17,23.11,88.45s84.33-75.12,184.16-75.12S391.44,47.73,391.44,88.45Z"/><path class="cls-1" d="M53.9,112.6a6.67,6.67,0,0,0,9.16,9.7C94.38,92.71,148.3,75.05,207.27,75.05c58.52,0,112.22,17.45,143.63,46.7A6.67,6.67,0,1,0,360,112c-33.82-31.48-90.9-50.28-152.71-50.28C145,61.71,87.64,80.74,53.9,112.6Z"/><path class="cls-1" d="M207,188a23.39,23.39,0,1,0,23.38,23.38A23.41,23.41,0,0,0,207,188Zm0,33.44a10.06,10.06,0,1,1,10-10.06A10.07,10.07,0,0,1,207,221.41Z"/><path class="cls-1" d="M307,175.37a21,21,0,1,0,21,21A21,21,0,0,0,307,175.37ZM307,204a7.67,7.67,0,1,1,7.66-7.67A7.67,7.67,0,0,1,307,204Z"/><path class="cls-1" d="M107,175.37a21,21,0,1,0,21,21A21,21,0,0,0,107,175.37ZM107,204a7.67,7.67,0,1,1,7.66-7.67A7.67,7.67,0,0,1,107,204Z"/></g></g></svg>