<svg xmlns="http://www.w3.org/2000/svg" viewBox="0 0 371.82 378.37"><defs><style>.cls-1{fill:#1d1d1b;}</style></defs><g id="Layer_2" data-name="Layer 2"><g id="Ñëîé_1" data-name="Ñëîé 1"><path class="cls-1" d="M129.09,190a57.35,57.35,0,0,0,18.62,42.26,6.66,6.66,0,1,0,9-9.84,43.45,43.45,0,1,1,58.15.18,6.66,6.66,0,0,0,4.47,11.61,6.58,6.58,0,0,0,4.46-1.72A56.94,56.94,0,1,0,129.09,190Z"/><path class="cls-1" d="M185.87,228.14c-33.08,0-60,33.7-60,75.11s26.91,75.12,60,75.12,60-33.7,60-75.12S219,228.14,185.87,228.14Zm0,136.89c-25.72,0-46.65-27.71-46.65-61.78s20.93-61.78,46.65-61.78,46.66,27.72,46.66,61.78S211.6,365,185.87,365Z"/><path class="cls-1" d="M177.5,49.83A6.64,6.64,0,0,0,169,54c-5,14.52-5.71,32.34-4.7,44.19a6.66,6.66,0,0,0,6.63,6.1l.58,0A6.67,6.67,0,0,0,177.62,97c-1.13-13.18.45-28.37,4-38.71A6.66,6.66,0,0,0,177.5,49.83Z"/><path class="cls-1" d="M200.2,104.28l.57,0a6.67,6.67,0,0,0,6.64-6.1c1-11.85.31-29.71-4.69-44.24a6.67,6.67,0,1,0-12.61,4.34c3.57,10.35,5.14,25.57,4,38.77A6.67,6.67,0,0,0,200.2,104.28Z"/><path class="cls-1" d="M234.33,150.57a6.67,6.67,0,0,0,6.67-6.64l.15-30.35a12.49,12.49,0,0,1,2.79-6.8l58.51-59.59a48.81,48.81,0,0,0,8.67-12.92l10.72-25A6.67,6.67,0,1,0,309.59,4L298.87,29a36.61,36.61,0,0,1-5.93,8.84l-58.51,59.6a25.38,25.38,0,0,0-6.61,16l-.16,30.36a6.68,6.68,0,0,0,6.64,6.71Z"/><path class="cls-1" d="M370,91.25A6.66,6.66,0,1,0,360.37,82L343.76,99.16a30,30,0,0,1-8.48,5.65l-64.73,25.37a32.76,32.76,0,0,0-13.06,10.21L242.3,161.74a6.67,6.67,0,0,0,10.87,7.73l15.18-21.35a19.86,19.86,0,0,1,7.07-5.52l64.72-25.37a43.09,43.09,0,0,0,13.2-8.8Z"/><path class="cls-1" d="M352,240.54a6.66,6.66,0,0,0-5.23-7.84l-9.12-1.83a55.05,55.05,0,0,1-10.87-3.69L281.5,204.9a70.15,70.15,0,0,0-14.1-4.85l-15-3.11A6.67,6.67,0,1,0,249.71,210l15,3.12a56.8,56.8,0,0,1,10.92,3.75l45.27,22.28A68.06,68.06,0,0,0,335,244l9.11,1.82a6.56,6.56,0,0,0,1.32.13A6.67,6.67,0,0,0,352,240.54Z"/><path class="cls-1" d="M335.85,333.76a6.67,6.67,0,0,0,5.52-10.39l-13-19.37a50.86,50.86,0,0,0-10.75-11.12l-42.48-30.69a44.81,44.81,0,0,1-7.92-7.83l-21.83-29.47a6.67,6.67,0,1,0-10.71,7.94l21.82,29.47A57.76,57.76,0,0,0,267.31,273l42.48,30.69a37.71,37.71,0,0,1,7.49,7.75l13,19.37A6.65,6.65,0,0,0,335.85,333.76Z"/><path class="cls-1" d="M137.39,97.45l-58.5-59.6A36.32,36.32,0,0,1,73,29L62.23,4A6.67,6.67,0,1,0,50,9.3l10.72,25a49.08,49.08,0,0,0,8.68,12.92l58.5,59.59a12.49,12.49,0,0,1,2.79,6.79l.16,30.36a6.67,6.67,0,0,0,6.66,6.64h0a6.67,6.67,0,0,0,6.63-6.71L144,113.5A25.34,25.34,0,0,0,137.39,97.45Z"/><path class="cls-1" d="M129.52,161.74l-15.18-21.35a32.72,32.72,0,0,0-13.07-10.21L36.54,104.81a30.29,30.29,0,0,1-8.48-5.65L11.46,82a6.66,6.66,0,1,0-9.58,9.26l16.6,17.18a43.21,43.21,0,0,0,13.2,8.8L96.4,142.6a19.77,19.77,0,0,1,7.07,5.52l15.19,21.35a6.67,6.67,0,1,0,10.86-7.73Z"/><path class="cls-1" d="M119.4,196.94l-15,3.11a69.85,69.85,0,0,0-14.09,4.85L45.06,227.18a55.83,55.83,0,0,1-10.88,3.7l-9.11,1.82a6.66,6.66,0,0,0,1.3,13.2,6.54,6.54,0,0,0,1.31-.13L36.79,244A67.94,67.94,0,0,0,51,239.14l45.26-22.28a56.9,56.9,0,0,1,10.93-3.75l15-3.12a6.66,6.66,0,1,0-2.71-13.05Z"/><path class="cls-1" d="M115.35,262.3l21.82-29.47a6.67,6.67,0,0,0-10.72-7.94l-21.82,29.47a45.5,45.5,0,0,1-7.92,7.83L54.23,292.88A51.14,51.14,0,0,0,43.47,304l-13,19.37a6.67,6.67,0,1,0,11.07,7.44l13-19.37A37.71,37.71,0,0,1,62,303.69L104.52,273A58.06,58.06,0,0,0,115.35,262.3Z"/><path class="cls-1" d="M162.24,134.46a6.67,6.67,0,0,0,8.06-4.9c1.76-7.21,5.06-10.57,6.73-10.57.91,0,2.21,1,3.4,2.72a6.65,6.65,0,0,0,10.89,0c1.19-1.68,2.49-2.72,3.4-2.72,1.63,0,4.86,3.25,6.65,10.22a6.66,6.66,0,0,0,12.91-3.31c-3.19-12.48-10.69-20.24-19.56-20.24a15.44,15.44,0,0,0-8.85,2.86,15.38,15.38,0,0,0-8.84-2.86c-9,0-16.56,7.94-19.69,20.74A6.68,6.68,0,0,0,162.24,134.46Z"/></g></g></svg>