<svg xmlns="http://www.w3.org/2000/svg" viewBox="0 0 497.75 517.49"><defs><style>.cls-1{fill:#1d1d1b;}</style></defs><g id="Layer_2" data-name="Layer 2"><g id="Ñëîé_1" data-name="Ñëîé 1"><path class="cls-1" d="M224.51,149.07c23.37,30.82,52.84,54.1,81.35,76.62C360.1,268.54,411.33,309,416.16,396.36a7.5,7.5,0,0,0,5.06,6.75c6.54,2.32,15.74-4.4,21.63-10.87,11-12.09,33.12-47.58,1.28-115.83-4.08-8.75-7-13.56-5-15.41s9.59,5.12,16.48,13.31c20.15,23.95,42.67,80.76,17.31,131.26-22.12,44.06-46.71,55.88-59.91,62.22-6.87,3.3-12.8,6.15-12.8,12.87a23.52,23.52,0,0,1-23.49,23.5H233.64a23.5,23.5,0,0,1,0-47h51a6.66,6.66,0,0,0,5-11.08L258.09,410.5a52.71,52.71,0,0,1,61.82-82.66,6.66,6.66,0,0,0,5.65-12.07,66,66,0,0,0-77.45,103.57l19.48,22c1.22,1.38.72,2.5-1.12,2.5H233.64a36.83,36.83,0,1,0,0,73.66H376.76a36.88,36.88,0,0,0,36.78-35c1.23-.75,3.43-1.8,5.28-2.69,13.6-6.54,41.89-20.13,66.05-68.26,28.44-56.62,4.2-118.23-19-145.82-9.74-11.58-24.63-22.85-34.57-16.53-11.22,7.16-2.2,26.5.77,32.85,21.34,45.75,16.4,74.22,8.49,90.05a46,46,0,0,1-11.68,15.12c-8-87.64-62.22-130.5-114.74-172-27.84-22-56.64-44.75-79-74.21a6.67,6.67,0,1,0-10.63,8Z"/><path class="cls-1" d="M50.21,113.26C75.4,120.7,92,125.62,94.18,130c1.21,2.49-1.56,9.46-5.07,18.29C58.79,224.55,93.72,273,124.53,315.66c27.88,38.63,54.2,75.11,32.7,128.85-1.89,4.7-9.52,8.23-13.56,8.23H132.19a32.38,32.38,0,0,0,0,64.75h54.93a6.67,6.67,0,1,0,0-13.33H132.19a19,19,0,0,1,0-38.09h11.48c8.09,0,21.6-5.77,25.93-16.6,24.24-60.55-5.5-101.76-34.26-141.61C105.13,266,73.88,222.68,101.5,153.23c5.09-12.8,8.45-21.26,4.67-29-4.71-9.69-17.64-13.51-52.19-23.71C33.57,94.45,20.66,84,15.61,69.32c-4.51-13.09-1.24-26,1.12-29.93C20.38,37.67,34.52,38,44,38.23c23.09.56,37.51.48,43-7.6,3.27-4.85,18-15.9,40.31-17.18,19.49-1.11,49.34,5.26,80.82,42,7.44,8.66,14.73,33.19,9.72,53.44C214.56,122,206.9,131,195,135.69c-6.95,2.76-10.51,1.19-12.58-.24-4.28-2.93-14.19-14.77-13.8-61.28V72.5a6.67,6.67,0,1,0-13.33,0v1.55c-.33,39.45,6.08,63.13,19.58,72.4,4.87,3.34,13.16,6.34,25,1.64,15.87-6.29,26.52-18.75,30.8-36,5.82-23.54-1.79-52.79-12.55-65.32C183.18,5.9,149-1.15,126.5.14,103,1.49,83,12.85,76,23c-3.57,2.62-21.88,2.19-31.75,1.95C23.17,24.4,11,24.45,6.17,31.2,1.18,38.18-3.09,56,3,73.67,7.5,86.7,19.33,104.14,50.21,113.26Z"/></g></g></svg>