<svg xmlns="http://www.w3.org/2000/svg" viewBox="0 0 392.82 372.11"><defs><style>.cls-1{fill:#1d1d1b;}</style></defs><g id="Layer_2" data-name="Layer 2"><g id="Ñëîé_1" data-name="Ñëîé 1"><path class="cls-1" d="M0,158C-1,207.53,35.57,216.2,49.35,219.47l1,.25c10.83,2.59,29.32,5,49.41,5,15.07,0,31-1.36,45.32-5,62.12-15.95,64-77.54,64.05-78.16a6.68,6.68,0,0,0-6.54-6.8h-.13a6.67,6.67,0,0,0-6.66,6.54c0,.52-1.62,52-54,65.51-29.33,7.53-69.29,4.52-88.31,0l-1.07-.25C37.5,203,12.51,197,13.35,158.27c.56-25.45,20.78-74.09,57.3-99.2,24.08-16.56,50.63-20,78.92-10.29-.45,1.66-.85,3.33-1.14,5a6.67,6.67,0,0,0,13.13,2.31,48.14,48.14,0,0,1,3.32-10.89c7.18-16.47,24.86-22.71,28.88-21,.61.26,2.78,2.1,4.71,7A38.4,38.4,0,0,1,198,59.65c-3.46,7.95-8.66,14.48-14.66,18.4a6.67,6.67,0,0,0,7.31,11.16c8.14-5.33,15.09-13.94,19.58-24.23a51.49,51.49,0,0,0,.66-38.67C208,19.14,203.83,14.05,199,12c-12-5.17-34.33,5.26-44.64,24.36-32.24-11.21-63.79-7.18-91.3,11.74C25.05,74.24.73,125.5,0,158Z"/><path class="cls-1" d="M97.92,96.35v4.06a6.67,6.67,0,0,0,13.34,0V96.35a6.67,6.67,0,0,0-13.34,0Z"/><path class="cls-1" d="M100.28,29.16a6.68,6.68,0,0,0,6.42-4.89c1.89-6.82,5.47-10.55,6.57-10.93,2.09-.32,9.64,3.06,14.87,11.09a6.67,6.67,0,0,0,11.17-7.28c-7.63-11.7-20.54-19-29.37-16.72-6.86,1.8-13.17,9.76-16.09,20.28a6.68,6.68,0,0,0,4.64,8.21A6.94,6.94,0,0,0,100.28,29.16Z"/><path class="cls-1" d="M392.75,226.89A186.25,186.25,0,0,0,225.39,41.07,6.67,6.67,0,1,0,224,54.34a173,173,0,0,1,155.4,172.79c0,.43,1.38,43.43-11.06,77.73a65.62,65.62,0,0,1-9.31,17.28,31.1,31.1,0,0,1-4,4.26,6.67,6.67,0,0,0,4.42,11.66,6.61,6.61,0,0,0,4.42-1.68,44.93,44.93,0,0,0,5.68-6.07,79.19,79.19,0,0,0,11.3-20.9C394.21,272.7,392.81,228.52,392.75,226.89Z"/><path class="cls-1" d="M276.68,349.4h0a6.67,6.67,0,1,0,0-13.33l-7.84,0h0a6.67,6.67,0,0,0,0,13.34Z"/><path class="cls-1" d="M199.05,322.52a6.67,6.67,0,0,0,1.52-13.16C151.39,297.82,112.28,269,96,232.27a6.67,6.67,0,1,0-12.19,5.41c18,40.52,60.54,72.17,113.76,84.66A6.64,6.64,0,0,0,199.05,322.52Z"/><path class="cls-1" d="M100.38,346.54a20,20,0,0,0,19.93,19.93h16.63c14.85,0,23.22-14.73,27.12-47.76a6.67,6.67,0,0,0-13.25-1.57c-1.58,13.45-5.49,36-13.87,36H120.31A6.6,6.6,0,0,1,120,340a9.62,9.62,0,0,0,7.78-3.22c3.81-4.15,7-12.85-2.28-43.55A6.67,6.67,0,0,0,112.75,297c5.81,19.22,5.74,27,5.32,29.7A20,20,0,0,0,100.38,346.54Z"/><path class="cls-1" d="M194.89,263.52a6.66,6.66,0,0,0-1,9.37c6.38,8,17.09,22.91,18.66,28.91,1.24,4.78-1,17.67-6,23.93-1.06,1.34-2.14,2.16-2.83,2.16h0a21.33,21.33,0,0,0-15.6,6.05,22.47,22.47,0,0,0-6.7,16.06,22.14,22.14,0,0,0,22.11,22.11h10.77c26.81,0,70.63-65.08,83.87-87.88,18.77-32.33,13.66-58.73,8.18-75.78a6.67,6.67,0,1,0-12.7,4.08c5.1,15.86,8.91,37.59-7,65-21.81,37.57-58.17,81.25-72.34,81.25H203.5a8.78,8.78,0,0,1-8.77-8.78,9.11,9.11,0,0,1,2.66-6.51,7.75,7.75,0,0,1,5.94-2.27c3.49.07,8.79-1.08,13.65-7.19,7.5-9.44,10.69-26.88,8.42-35.59-2.73-10.47-18.09-30.05-21.14-33.88A6.67,6.67,0,0,0,194.89,263.52Z"/><path class="cls-1" d="M310.7,337.53a6.67,6.67,0,0,0,0-13.33,23.78,23.78,0,1,0,0,47.56h18.53A23.78,23.78,0,0,0,347,332.12,6.67,6.67,0,0,0,337,341a10.45,10.45,0,0,1-7.78,17.42H310.7a10.45,10.45,0,0,1,0-20.9Z"/></g></g></svg>