<svg xmlns="http://www.w3.org/2000/svg" viewBox="0 0 406.57 481.59"><defs><style>.cls-1{fill:#1d1d1b;}</style></defs><g id="Layer_2" data-name="Layer 2"><g id="Ñëîé_1" data-name="Ñëîé 1"><path class="cls-1" d="M351.44,305.06c-4.11-9.18-14.8-16.11-24.87-16.11H291.43a6.67,6.67,0,1,0,0,13.33h35.14c4.72,0,10.77,3.92,12.7,8.23l49.1,109.69A67.53,67.53,0,0,1,393.24,443V461.6a6.64,6.64,0,0,1-6.66,6.66h0L20,468a6.69,6.69,0,0,1-6.68-6.68V443A67.53,67.53,0,0,1,18.2,420.2L67.3,310.51c1.93-4.31,8-8.23,12.7-8.23h38.39a6.67,6.67,0,1,0,0-13.33H80c-10.06,0-20.75,6.93-24.87,16.11L6,414.76A81,81,0,0,0,0,443v18.37a20,20,0,0,0,20,20l366.57.23h0a20,20,0,0,0,20-20V443a81.07,81.07,0,0,0-6-28.23Z"/><path class="cls-1" d="M344.77,430.81a6.67,6.67,0,1,0,0-13.33H325.64a6.67,6.67,0,0,0,0,13.33Z"/><path class="cls-1" d="M48.25,424.14a6.66,6.66,0,0,0,6.66,6.67H289a6.67,6.67,0,1,0,0-13.33H54.91A6.66,6.66,0,0,0,48.25,424.14Z"/><path class="cls-1" d="M150.91,81.09c13.61,5.17,33.48,8.14,54.5,8.14,19.66,0,38-2.52,51.56-7.09a6.67,6.67,0,0,0-4.26-12.64c-12.07,4.06-29.31,6.4-47.3,6.4-19.47,0-37.61-2.65-49.77-7.27a6.66,6.66,0,1,0-4.73,12.46Z"/><path class="cls-1" d="M151.91,113.84c13.61,5.18,33.48,8.15,54.5,8.15,19.66,0,38-2.52,51.56-7.09a6.67,6.67,0,0,0-4.25-12.64c-12.08,4.06-29.32,6.39-47.31,6.39-19.47,0-37.6-2.65-49.76-7.27a6.67,6.67,0,0,0-4.74,12.46Z"/><path class="cls-1" d="M151.91,146.6c13.61,5.18,33.48,8.14,54.5,8.14,19.66,0,38-2.51,51.56-7.09A6.66,6.66,0,1,0,253.72,135c-12.08,4.06-29.32,6.39-47.31,6.39-19.47,0-37.6-2.65-49.76-7.27a6.67,6.67,0,0,0-4.74,12.46Z"/><path class="cls-1" d="M151.91,179.36c13.61,5.18,33.48,8.14,54.5,8.14,19.66,0,38-2.52,51.56-7.09a6.67,6.67,0,0,0-4.25-12.64c-12.08,4.07-29.32,6.4-47.31,6.4-19.47,0-37.6-2.65-49.76-7.27a6.67,6.67,0,1,0-4.74,12.46Z"/><path class="cls-1" d="M151.91,212.12c13.61,5.17,33.48,8.14,54.5,8.14,19.66,0,38-2.52,51.56-7.09a6.67,6.67,0,0,0-4.25-12.64c-12.08,4.06-29.32,6.39-47.31,6.39-19.47,0-37.6-2.65-49.76-7.26a6.67,6.67,0,0,0-4.74,12.46Z"/><path class="cls-1" d="M151.91,244.87c13.61,5.18,33.48,8.14,54.5,8.14,19.66,0,38-2.51,51.56-7.09a6.66,6.66,0,1,0-4.25-12.63c-12.08,4.06-29.32,6.39-47.31,6.39-19.47,0-37.6-2.65-49.76-7.27a6.67,6.67,0,0,0-4.74,12.46Z"/><path class="cls-1" d="M151.91,277.63c13.61,5.18,33.48,8.14,54.5,8.14,19.66,0,38-2.52,51.56-7.09A6.67,6.67,0,0,0,253.72,266c-12.08,4.07-29.32,6.4-47.31,6.4-19.47,0-37.6-2.65-49.76-7.27a6.67,6.67,0,1,0-4.74,12.46Z"/><path class="cls-1" d="M151.91,310.39c13.61,5.17,33.48,8.14,54.5,8.14,19.66,0,38-2.52,51.56-7.09a6.67,6.67,0,0,0-4.25-12.64c-12.08,4.06-29.32,6.4-47.31,6.4-19.47,0-37.6-2.65-49.76-7.27a6.67,6.67,0,1,0-4.74,12.46Z"/><path class="cls-1" d="M258,344.2a6.67,6.67,0,0,0-4.25-12.64c-12.08,4.06-29.32,6.39-47.31,6.39-19.47,0-37.6-2.65-49.76-7.27a6.67,6.67,0,0,0-4.74,12.46c13.61,5.18,33.48,8.15,54.5,8.15C226.07,351.29,244.38,348.77,258,344.2Z"/><path class="cls-1" d="M279.57,361.94V27.79C279.57,8.7,241.12,0,205.41,0s-74.16,8.7-74.16,27.79V361.94c0,19.09,38.44,27.79,74.16,27.79S279.57,381,279.57,361.94ZM205.41,13.33c39.91,0,60.82,10.75,60.82,14.46s-20.91,14.46-60.82,14.46S144.58,31.5,144.58,27.79,165.5,13.33,205.41,13.33ZM144.58,361.94V44.59c14.34,7.47,38.13,11,60.83,11s46.49-3.52,60.82-11V361.94c0,3.71-20.91,14.45-60.82,14.45S144.58,365.65,144.58,361.94Z"/></g></g></svg>