<svg xmlns="http://www.w3.org/2000/svg" viewBox="0 0 471.76 570.05"><defs><style>.cls-1{fill:#1d1d1b;}</style></defs><g id="Layer_2" data-name="Layer 2"><g id="Ñëîé_1" data-name="Ñëîé 1"><path class="cls-1" d="M310.19,55.82l5.55-14.68c.53,0,1.05.1,1.58.1a20.62,20.62,0,1,0-17.11-9.11,20.3,20.3,0,0,0,3.26,3.76L297.72,51.1a6.67,6.67,0,0,0,3.87,8.6h0A6.68,6.68,0,0,0,310.19,55.82Zm3.05-41.24a7.28,7.28,0,1,1,8.14,12.08,7.46,7.46,0,0,1-10.11-2A7.3,7.3,0,0,1,313.24,14.58Z"/><path class="cls-1" d="M386.25,312a20.59,20.59,0,0,0-13.07-7.21l-6.84-24.91h0a6.67,6.67,0,0,0-3.22-4.09c-22-12.05-50.62-2.47-50.88-2.38a6.66,6.66,0,0,1-8.65-7.79,281.42,281.42,0,0,0,6.3-49.92,6.67,6.67,0,0,0-10.77-5.41c-32.82,25.67-51.62,63.17-52.94,105.62-.41,13-1.23,25.95-2.44,38.35a6.66,6.66,0,0,0,5.84,7.26c21.53,2.59,48.7.08,60.05-1.61a6.67,6.67,0,0,1,7.12,9.21c-.12.28-11.86,28.07-1.55,50.93a8.4,8.4,0,0,0,3.82,3.53l24.31,8.74a20.58,20.58,0,1,0,5.79-15.57,20.93,20.93,0,0,0-2.2,2.7L326.38,412c-5.84-16.73,2.54-37.51,2.61-37.68a20,20,0,0,0-21.32-27.66c-9.63,1.43-31.2,3.49-50.06,2.17.91-10.62,1.54-21.55,1.89-32.57,1.28-41.13,19.83-68.68,36-85a283.69,283.69,0,0,1-4.94,31.36A20,20,0,0,0,316.46,286c.22-.08,21.58-6.83,37.82.28l5.78,21a20.19,20.19,0,0,0-2.85,2,20.62,20.62,0,1,0,29,2.63ZM358.66,426a7.28,7.28,0,1,1,10.44,10.16,7.45,7.45,0,0,1-10.3.14,7.29,7.29,0,0,1-.14-10.3Zm16.42-95.26a7.28,7.28,0,0,1-10.26-.93,7.28,7.28,0,0,1,.93-10.26,7.17,7.17,0,0,1,4.65-1.69,7.28,7.28,0,0,1,4.68,12.88Z"/><path class="cls-1" d="M416.82,317.48a19.3,19.3,0,0,0,2.14-.11,20.61,20.61,0,1,0-16.48-35.27l-13.65-7.71a6.68,6.68,0,0,0-9.09,2.52h0a6.67,6.67,0,0,0,2.53,9.09l14.17,8a21,21,0,0,0-.11,5A20.56,20.56,0,0,0,416.82,317.48Zm-.73-27.86a6.74,6.74,0,0,1,.77,0,7.3,7.3,0,1,1-.77,0Z"/><path class="cls-1" d="M311.8,471.53a20.63,20.63,0,0,0,16.6,24,21,21,0,0,0,3.71.33,20.62,20.62,0,0,0,3.67-40.9,21.07,21.07,0,0,0-3.71-.34c-.42,0-.82.09-1.23.11l-9.75-20.83A6.66,6.66,0,1,0,309,439.52l9.46,20.25A20.61,20.61,0,0,0,311.8,471.53Zm26.28-.46a7.2,7.2,0,0,1,1.18,5.44,7.29,7.29,0,0,1-13.16,2.85,7.28,7.28,0,0,1,6-11.43,7.45,7.45,0,0,1,1.32.12A7.24,7.24,0,0,1,338.08,471.07Z"/><path class="cls-1" d="M470.63,119.42c-2.73-7.64-9.92-12.88-20.22-14.74L393.77,94.43c-11.54-2.07-28.9,4.2-35.71,12.93-2,2.59-3.74,5.06-5.41,7.44-7.73,11.11-13.41,19.27-40.7,24.72a243.07,243.07,0,0,0-23.47-24.89c8.93-7.16,18.67-17.42,24.68-30.91l19.71-8.09a21,21,0,0,0,2.43,2.91,20.69,20.69,0,1,0-6-15.84l-21,8.6a18.71,18.71,0,0,0-2.24.92,8.39,8.39,0,0,0-4.32,4.48c-.27.73-.59,1.42-.91,2.12-6.37,13.92-17.83,23.81-26.59,29.77a6.67,6.67,0,0,0-.66,10.51c8.56,7.56,20.77,19.21,30.34,31.76a6.66,6.66,0,0,0,6.47,2.53c36.13-6.42,44.44-18.34,53.23-31,1.56-2.24,3.17-4.56,5-6.86,3.47-4.44,15.64-9.3,22.83-8L448,117.8c5.34,1,9,3.19,10,6.11s-.37,7-3.88,11.09l-37.31,43.82c-4.82,5.67-15.7,10.72-22,8.51-19.36-6.84-44.21-4.58-68.17,6.19a6.67,6.67,0,0,0-3.91,6.64c1.43,17-.64,36.08-2.63,49.08a6.67,6.67,0,0,0,7.24,7.64c11.22-1.09,27.62-.73,42.09,7.18a6.59,6.59,0,0,0,3.19.82,6.5,6.5,0,0,0,2.1-.38l0,0,23.94-8a20.43,20.43,0,0,0,13.38,6.77,18.7,18.7,0,0,0,2,.1,20.62,20.62,0,1,0-20.54-22.58,20.21,20.21,0,0,0,0,3.39L373.19,251c-13.24-6.49-27.24-8.12-38.69-7.91a232.26,232.26,0,0,0,1.92-39.24c19.48-7.83,39-9.3,54-4,12.36,4.37,28.6-3.06,36.58-12.43l37.31-43.83C471.13,135.67,473.36,127.07,470.63,119.42Zm-126-60.65a7.28,7.28,0,1,1-2.11,5.16A7.25,7.25,0,0,1,344.64,58.77Zm69.44,176.75a5.63,5.63,0,0,1,.71,0,7.29,7.29,0,0,1,6.56,7.94,7.29,7.29,0,0,1-12.87,3.95,7.29,7.29,0,0,1,5.6-11.93Z"/><path class="cls-1" d="M.44,466.79c-2.55,25,6,50.7,23.55,70.55A95.27,95.27,0,0,0,93.88,570c.94,0,1.88,0,2.82,0,61.59,0,133.55-47.68,156-181.43a250,250,0,0,0,32.17.36c-1.1,11.38-.54,25.48,4.91,39.19L281.42,448a19.8,19.8,0,0,0-3-.25H278a20.63,20.63,0,0,0-20.25,21,20.73,20.73,0,0,0,20.62,20.24h.38a20.56,20.56,0,0,0,14.49-34.81l9.82-23.3a6,6,0,0,0,.52-2.67,5.76,5.76,0,0,0-.59-2.66c-6.78-15-5.87-31.42-3.92-42.52a6.68,6.68,0,0,0-1.62-5.63,6.77,6.77,0,0,0-5.44-2.18c-11.47.87-28.44,1.49-44.15-.44a6.66,6.66,0,0,0-7.4,5.61C220.28,512.43,151.73,558.06,94.2,556.68A82.08,82.08,0,0,1,34,528.52c-15.07-17.07-22.46-39.08-20.29-60.38,2.82-27.55,19.46-56.49,57.26-55,7.29.29,12.65,3,12.44,4.62s-4.52,2.54-12.35,2.75c-24.73.64-42.29,17.36-44.73,42.59-1.91,19.87,4.54,38.17,18.19,51.55,15.24,14.94,38.09,22.25,61.1,19.56,26-3,50.39-17.9,67-40.78,17.33-23.89,34.86-67.89,19.93-141.81-1.66-8.25-3.15-16.5-4.41-24.53a6.62,6.62,0,0,0-2.28-4.06,250,250,0,0,1-27.2-27.48,6.66,6.66,0,0,0-10.51.51c-6.48,9.21-17.46,21.42-32.89,27.23a16.64,16.64,0,0,0-2.3,1.46,5.66,5.66,0,0,0-1.47,2.15s-9.61,23.45-9.61,23.45a20.61,20.61,0,1,0,15.29,6.32,20,20,0,0,0-2.56-2.23l8.13-19.86c13.55-5.81,23.94-15.37,31.23-24.18a254.46,254.46,0,0,0,21.39,21.2c1.2,7.44,2.59,15.05,4.12,22.66,14,69.18-1.89,109.61-17.65,131.34-14.41,19.87-35.46,32.76-57.74,35.37-19,2.23-37.83-3.7-50.21-15.84-7.59-7.43-16.21-20.53-14.25-40.74.67-7,5-29.85,31.8-30.55C95,433.2,96.87,421.56,96.89,418,97,408.19,86,400.36,71.47,399.8q-1.57-.06-3.12-.06C31.14,399.74,4.63,425.74.44,466.79Zm277.65,8.81a7.33,7.33,0,0,1-7-7.15,7.23,7.23,0,0,1,2-5.18,7.28,7.28,0,1,1,5.7,12.32ZM107.32,376.19A7.46,7.46,0,0,1,97,376a7.28,7.28,0,0,1,5.25-12.33,7.29,7.29,0,0,1,5,12.54Z"/><path class="cls-1" d="M68.31,263.49A20.62,20.62,0,0,0,68,304.73h.32A20.49,20.49,0,0,0,82,299.5l23.39,11.07a7.44,7.44,0,0,0,2.85.64,10.61,10.61,0,0,0,2.34-.42c23.48-8.84,34.87-36.76,35-37a6.67,6.67,0,0,1,11.55-1.48c3.81,5.17,9.4,12,15,18.24a6.67,6.67,0,0,0,11.64-4.76c-4.95-99.1,42.79-120.14,95.13-128.11a6.65,6.65,0,0,0,3.86-11.14,291.85,291.85,0,0,0-32.3-29.34,6.66,6.66,0,0,1,1.7-11.55c1.08-.43,25.16-10.11,35.62-30.25a25.43,25.43,0,0,0,1.66-3.59,8.64,8.64,0,0,0-.09-6.19c-.32-.65-1.45-3.41-1.45-3.41L279.21,42a20.52,20.52,0,1,0-11.58,6.85l8.44,19.88c-7.88,15.9-28.71,24.45-28.86,24.51a20,20,0,0,0-5,34.57,276.53,276.53,0,0,1,21.83,18.93c-47.85,9.65-92.54,34.54-94.08,120.59-1.06-1.37-1.81-2.37-2.23-2.93a20,20,0,0,0-34.61,4.37c-.1.21-8.9,20.82-24.88,28.49l-19.73-9.34a20.49,20.49,0,0,0-20.25-24.39ZM256.24,28.61a7.29,7.29,0,1,1,7.29,7.28A7.3,7.3,0,0,1,256.24,28.61ZM67.77,291.38a7.29,7.29,0,0,1,.66-14.55h0a7.28,7.28,0,0,1,.38,14.55Z"/><path class="cls-1" d="M42.57,326a20.63,20.63,0,0,0,16.92,32.39h0A20.58,20.58,0,0,0,80.05,336.5l21-7.58a6.67,6.67,0,1,0-4.53-12.54L75,324.16a20.41,20.41,0,0,0-15.45-7A20.62,20.62,0,0,0,42.57,326Zm11,7.61a7.29,7.29,0,0,1,6-3.13,7.29,7.29,0,0,1,6,11.44,7.28,7.28,0,1,1-12-8.31Z"/></g></g></svg>