<svg xmlns="http://www.w3.org/2000/svg" viewBox="0 0 426.36 426.37"><defs><style>.cls-1{fill:#1d1d1b;}</style></defs><g id="Layer_2" data-name="Layer 2"><g id="Ñëîé_1" data-name="Ñëîé 1"><path class="cls-1" d="M241.31,222h26.51a6.67,6.67,0,1,0,0-13.33H241.31a6.67,6.67,0,1,0,0,13.33Z"/><path class="cls-1" d="M95.48,304.51a7,7,0,0,0,1.5.16,6.67,6.67,0,0,0,1.5-13.16,35.23,35.23,0,0,1,8-69.55h72.17a6.67,6.67,0,1,0,0-13.33H111.69a34.79,34.79,0,0,1,30.91-51h25.05a6.67,6.67,0,0,0,0-13.34h-9c-.05-.62-.1-1.25-.1-1.87a25.73,25.73,0,0,1,25.7-25.71h13.39c2,.06,8.08.24,11.33-4.44,3.35-4.83,1.15-10.24-1.18-16-3-7.31-6.21-15.3-1.54-23.63,2.9,10,11.64,14.47,18.62,18,9.64,4.94,14.63,8,13.73,19a6.67,6.67,0,0,0,6,7.18A25.86,25.86,0,0,1,264,129a6.66,6.66,0,1,0,11.35-7A39.32,39.32,0,0,0,252,104.67C250.83,89,239.5,83.21,231,78.84c-9.78-5-14.68-7.51-11.34-20.65A6.66,6.66,0,0,0,209.47,51c-27.07,18.14-18.24,39.87-14,50.31.26.64.55,1.36.83,2.07h-12a39.08,39.08,0,0,0-39,39c0,.62.06,1.25.09,1.87H142.6a48.19,48.19,0,0,0-45.15,65.2,48.55,48.55,0,0,0-2,95Z"/><path class="cls-1" d="M328.92,209.5a48.22,48.22,0,0,0-21.47-59,6.67,6.67,0,0,0-6.55,11.62,34.75,34.75,0,0,1,13.78,46.51h-4.87a6.67,6.67,0,1,0,0,13.33h10.12a35.23,35.23,0,0,1,0,70.46H160.53a6.67,6.67,0,1,0,0,13.33h159.4a48.54,48.54,0,0,0,9-96.25Z"/><path class="cls-1" d="M229.9,144.3h-4.1a6.67,6.67,0,0,0,0,13.34h4.1a6.67,6.67,0,0,0,0-13.34Z"/><path class="cls-1" d="M199.32,144.3h-11a6.67,6.67,0,0,0,0,13.34h11a6.67,6.67,0,1,0,0-13.34Z"/><path class="cls-1" d="M213.18,0C95.63,0,0,95.63,0,213.18S95.63,426.37,213.18,426.37s213.18-95.64,213.18-213.19S330.73,0,213.18,0Zm0,13.33a199.12,199.12,0,0,1,136.43,54L67.33,349.61a199.12,199.12,0,0,1-54-136.43C13.33,103,103,13.33,213.18,13.33Zm0,399.7A199,199,0,0,1,76.76,359L359,76.76a199.06,199.06,0,0,1,54,136.42C413,323.38,323.38,413,213.18,413Z"/></g></g></svg>