<svg xmlns="http://www.w3.org/2000/svg" viewBox="0 0 365.19 437.16"><defs><style>.cls-1{fill:#1d1d1b;}</style></defs><g id="Layer_2" data-name="Layer 2"><g id="Ñëîé_1" data-name="Ñëîé 1"><path class="cls-1" d="M43,274.55c9.75,19.18,19,37.29,6.22,100.28-.49,2.42-6.63,5.23-10.27,5.23H35.42a28.56,28.56,0,0,0,.46,57.11H69.3a6.67,6.67,0,1,0,0-13.33H35.88a15.22,15.22,0,1,1,0-30.44H39c8.44,0,21.24-5.53,23.34-15.92,13.65-67.53,3.43-87.66-7.4-109-9.76-19.2-19.85-39-10.46-103.79,4.82-33.25-17.52-54.83-27.78-64.41a1.66,1.66,0,0,1-.09-2.55,57.79,57.79,0,0,0,6.19-7.19C27.36,84,25.5,74,23.37,66.15c-4.31-16-4.42-32.54-.32-50.63,4.87,5.24,11.64,11.87,18.71,16.7,6.44,4.39,16.84,4.34,23.79,2.44,14-3.86,41.4-7.87,67.14,8.52,5.8,3.7,15.55,6.57,23,4.93a128.34,128.34,0,0,0,26.45-8.77,165.51,165.51,0,0,1-11.27,48.34c-4.21,10.24-5.1,18.31-2.63,24a69.22,69.22,0,0,0,4.12,7.76c1,1.58.72,3.44-.55,4.18l-2.32,1.32c-3.13,1.78-6.67,3.8-10.17,6-4.15,2.59-6.49,6.54-6.43,10.83.07,4.45,2.67,8.49,7.14,11.09,23.21,13.54,138.28,85.79,123.4,178.86a7.21,7.21,0,0,0,4.23,7.76c6.74,3.05,21-4,29.83-14.73,13.49-16.35,28-55.33-26.69-132.63-19.68-27.85-25.7-54.7-16.93-75.61,6.27-15,19.64-25.11,36.69-27.89C322,86.72,329.44,92,330.61,97.84c1.2,6.1-4.59,11.57-14.77,14a37.6,37.6,0,0,0-9.49,3.31c-12.39,6.8-14.85,20.37-13,30.8,2.31,13.16,11.52,28.23,22.18,45.68C340.67,232.78,372,284,334.44,341.16c-13.3,20.23-27.91,27.56-39.65,33.44-12.37,6.21-24.05,12.06-25,29.86-.59,11-8.77,19.37-19,19.37H115.58a19,19,0,0,1,0-38H149c7.63,0,10.38-4.28,11.21-6.12s2.21-6.74-2.85-12.45l-20.19-22.8a43.88,43.88,0,0,1,32.82-73h.6a6.67,6.67,0,0,0,.07-13.34,57.21,57.21,0,0,0-43.47,95.13L142,370c1.22,1.38.72,2.5-1.12,2.5H115.58a32.35,32.35,0,1,0,0,64.69H250.76c17.45,0,31.35-13.75,32.34-32,.52-9.68,5.48-12.55,17.66-18.66,12.48-6.25,29.56-14.82,44.82-38,42.18-64.18,7-121.79-18.68-163.85-10-16.29-18.55-30.37-20.43-41-.64-3.66-1.32-12.62,6.29-16.79a24.45,24.45,0,0,1,6.12-2c20.24-4.74,27-18.25,24.8-29.53-2.37-12-15.56-23-35.3-19.83C286.7,79,269.62,92,261.54,111.31c-10.61,25.31-4.1,56.73,18.33,88.46,41.66,58.93,40.5,91.68,32.2,108.79a36.74,36.74,0,0,1-14.39,15.82c7.61-96.19-105.43-168.09-130.41-182.75,3-1.83,6-3.57,8.78-5.13,7.91-4.5,10.72-6.19,12.3-8.82,2.38-4,.27-7.33-2.66-12a75.67,75.67,0,0,1-5.26-9.37c-.59-1.36-.35-6.09,2.73-13.59A176.65,176.65,0,0,0,195.57,38c.32-4.89-1.46-9-4.88-11.28s-8.32-2.38-13.05,0a112.84,112.84,0,0,1-24.88,8.41c-3.13.7-9.17-.78-12.91-3.17C109.77,12.78,78.18,17.37,62,21.8c-4.42,1.22-10.49.93-12.73-.59-6.81-4.65-13.52-11.48-18-16.39C27.79.9,23.34-.74,19.12.31s-7.18,4.45-8.4,9.38c-5.27,21.37-5.35,41-.23,59.94,2.94,10.84,1.4,13.24,1.33,13.34A51.78,51.78,0,0,1,6.4,89.12C2.83,92.77,0,95.66,0,99.74c0,3.58,2.18,5.51,6.13,9,8.73,7.77,29.2,26,25.13,54C21.27,231.74,32.83,254.48,43,274.55Z"/></g></g></svg>