<svg xmlns="http://www.w3.org/2000/svg" viewBox="0 0 506.16 368.67"><defs><style>.cls-1{fill:#1d1d1b;}</style></defs><g id="Layer_2" data-name="Layer 2"><g id="Ñëîé_1" data-name="Ñëîé 1"><path class="cls-1" d="M252.25,247.34c-29.47,0-53.44,27.66-53.44,61.65,0,19.26,11.64,32.49,27.86,31.2,8.6-.67,14.5-3.83,20.75-7.17l.85-.46c3.47-1.84,8.3-1.82,10.73.11,6.55,5.19,14.45,8.18,21.69,8.18,12.09,0,25-8.37,25-31.86C305.7,275,281.72,247.34,252.25,247.34Zm28.44,80.17c-4.28,0-9.17-1.92-13.4-5.29a21.16,21.16,0,0,0-13.33-4.4,25.47,25.47,0,0,0-12,3l-.86.46c-5.63,3-9.69,5.18-15.51,5.63-.36,0-.71,0-1.07,0-9.16,0-12.42-9.27-12.42-17.94,0-26.64,18-48.31,40.11-48.31s40.11,21.67,40.11,48.31C292.36,317.44,290.34,327.51,280.69,327.51Z"/><path class="cls-1" d="M206.76,245.76C204.09,232,193.86,222,182.45,222a18.84,18.84,0,0,0-3.66.36c-12.44,2.42-20.14,16.85-17.16,32.16,2.68,13.76,12.9,23.75,24.31,23.75a19.48,19.48,0,0,0,3.66-.35C202.05,275.51,209.75,261.08,206.76,245.76Zm-19.7,19.09c-4.57.89-10.62-4-12.34-12.85-1.52-7.83,1.57-15.55,6.61-16.54a6.07,6.07,0,0,1,1.12-.11c4.28,0,9.65,4.85,11.23,13C195.2,256.14,192.11,263.87,187.06,264.85Z"/><path class="cls-1" d="M330.83,225.23a19.28,19.28,0,0,0-6.35-1.06c-10.54,0-20.46,8.13-24.67,20.24a32.16,32.16,0,0,0-.56,20.25c2.2,6.82,6.92,11.93,13,14a19.18,19.18,0,0,0,6.34,1.07c10.54,0,20.45-8.14,24.67-20.25a32.15,32.15,0,0,0,.56-20.25C341.6,232.45,336.88,227.34,330.83,225.23Zm-.18,29.9c-2.56,7.34-8.13,11.3-12.08,11.3a6.22,6.22,0,0,1-2-.33c-2.82-1-4.13-3.88-4.66-5.52a19,19,0,0,1,.47-11.79c2.55-7.33,8.12-11.29,12.07-11.29a6,6,0,0,1,2,.33c2.82,1,4.13,3.88,4.66,5.52A19.07,19.07,0,0,1,330.65,255.13Z"/><path class="cls-1" d="M227.38,246.77a22.32,22.32,0,0,0,2.3-.13c13.44-1.53,22.84-16.31,21-32.94s-14.24-28.94-27.81-27.39c-6.78.77-12.89,5-16.77,11.55a34.56,34.56,0,0,0-4.19,21.38C203.66,234.93,214.63,246.77,227.38,246.77Zm-9.83-42.13c1-1.73,3.25-4.68,6.78-5.08a7.16,7.16,0,0,1,.8-.05c5.78,0,11.28,7,12.26,15.69,1,9.17-3.18,17.5-9.21,18.19s-12-6.6-13.06-15.66A21.43,21.43,0,0,1,217.55,204.64Z"/><path class="cls-1" d="M277.69,246.68a19.65,19.65,0,0,0,2,.1c12.9,0,23.83-12,25.41-27.88,1.65-16.65-7.95-31.3-21.42-32.64C270,184.89,257.94,197.32,256.28,214a34.57,34.57,0,0,0,4.49,21.31C264.74,241.88,270.91,246,277.69,246.68Zm-8.14-31.32c.87-8.75,6.32-15.87,12.15-15.87a5.43,5.43,0,0,1,.69,0c6,.6,10.37,8.87,9.46,18.05S285.15,234,279,233.41c-3.53-.35-5.81-3.28-6.85-5A21.46,21.46,0,0,1,269.55,215.36Z"/><path class="cls-1" d="M253.08,0C135.08,0,42.5,37.89,41.13,86.45L0,247.49v.84c0,64.1,118.26,120.34,253.08,120.34s253.08-56.24,253.08-120.34v-.84L465,86.45C463.66,37.89,371.08,0,253.08,0Zm0,13.33c107.69,0,198.68,34,198.68,74.21s-91,74.21-198.68,74.21S54.4,127.76,54.4,87.54,145.38,13.33,253.08,13.33Zm0,342c-136.49,0-238.66-55.9-239.74-106.21l35.26-138c24.34,37.28,105.45,64,204.48,64s180.14-26.7,204.48-64l35.26,138C491.74,299.44,389.57,355.34,253.08,355.34Z"/><path class="cls-1" d="M104,131.57a6.6,6.6,0,0,0,3.67-1.11c31.49-20.82,89.72-33.75,152-33.75,57.65,0,111.75,11,144.73,29.38a6.67,6.67,0,0,0,6.5-11.65C376,95,319.44,83.38,259.62,83.38c-65.69,0-125.24,13.44-159.3,36A6.67,6.67,0,0,0,104,131.57Z"/></g></g></svg>