<svg xmlns="http://www.w3.org/2000/svg" viewBox="0 0 589.26 451.84"><defs><style>.cls-1{fill:#1d1d1b;}</style></defs><g id="Layer_2" data-name="Layer 2"><g id="Ñëîé_1" data-name="Ñëîé 1"><path class="cls-1" d="M516.82,249.1a6.75,6.75,0,0,0,1.93-4.7,6.82,6.82,0,0,0-1.93-4.74,6.94,6.94,0,0,0-9.44,0,6.72,6.72,0,0,0-2,4.74,6.69,6.69,0,0,0,6.66,6.66A6.72,6.72,0,0,0,516.82,249.1Z"/><path class="cls-1" d="M542,176.94a94.23,94.23,0,0,0-82.21-38.13,2.68,2.68,0,0,1-1.83-.42,3.14,3.14,0,0,1-.76-2.09c-.83-14.08-5.77-30.65-14.68-49.23-12.3-25.65-33.45-47.25-45-57.84-19.7-18.11-32.69-25.85-38.63-23S351,24,352.71,50.7c1,15.66,4.59,45.73,16.86,71.33,8.71,18.18,18.32,32.21,28.55,41.68a2.86,2.86,0,0,1,1.07,1.78,2.5,2.5,0,0,1-.84,1.55,123,123,0,0,0-12.8,15.25c-6.58-2.89-12.87-5.68-18.93-8.36-55-24.38-91.33-40.49-143.1-40.49-87.06,0-157.89,70.84-157.89,157.9l0,64.54A47.47,47.47,0,0,0,18.18,363l-.55.44a47.43,47.43,0,1,0,59.6,73.79l.53-.43C78.89,435.91,80,435,81,434a37.49,37.49,0,0,0,32.13,17.89H338.53a37.94,37.94,0,0,0,0-75.87l-26.11-.05a82.89,82.89,0,0,0,10.25-40.11A83.73,83.73,0,0,0,239,252.18a6.67,6.67,0,1,0,0,13.33,70.28,70.28,0,0,1,55.82,113,6.67,6.67,0,0,0,5.28,10.71l38.39.07a24.61,24.61,0,0,1,0,49.21H113.14a24.25,24.25,0,0,1-23.78-19,6.66,6.66,0,0,0-12.21-2,33.75,33.75,0,0,1-7.76,8.91l-.53.43a34.1,34.1,0,0,1-42.86-53l.54-.44a34.12,34.12,0,0,1,41.74-.87,6.66,6.66,0,0,0,10.63-5.35l0-75.84c0-79.71,64.85-144.56,144.56-144.56,49,0,84.26,15.65,137.69,39.34,7.67,3.4,15.72,7,24.24,10.68a6.67,6.67,0,0,0,8.46-2.81c2.9-5.1,8-11.52,14-17.62a15.44,15.44,0,0,0,4.65-11.21,15.84,15.84,0,0,0-5.35-11.23c-9-8.33-17.59-21-25.58-37.67-16.41-34.23-17.09-79-15.41-94.95,13.4,8.59,47.77,37.05,64.29,71.52,8,16.78,12.68,32.09,13.41,44.26a16.09,16.09,0,0,0,5.23,11.29,15.69,15.69,0,0,0,11.52,3.74A80.94,80.94,0,0,1,531.33,185c.26.33,25.35,33,30.91,42.14,14.73,24.14,17.67,46.59,8.27,63.21-8.19,14.51-25.75,23.83-44.54,23.83h-.32l-58.51-2.6A98,98,0,0,1,424.69,299a6.67,6.67,0,1,0-6.57,11.6,111.15,111.15,0,0,0,48.3,14.29l58.9,2.62h.44c24.11,0,45.68-11.7,56.36-30.6,11.88-21,8.86-48.26-8.5-76.72C567.69,210.44,543,178.21,542,176.94Z"/><path class="cls-1" d="M434.38,0c-2.77.15-8.52.47-20.09,31.5a6.67,6.67,0,1,0,12.5,4.66,154.22,154.22,0,0,1,8.57-19.43c9.13,13.05,30.07,52.44,32.22,90.6a184.38,184.38,0,0,1,.15,18.87,6.68,6.68,0,0,0,6.34,7h.32a6.67,6.67,0,0,0,6.66-6.35,199.92,199.92,0,0,0-.16-20.25C479.29,78.2,468,50.17,461.33,36,450,11.73,440.82-.31,434.38,0Z"/><path class="cls-1" d="M423.61,438.51l-13-.05c-4.56,0-10.2-3.44-11.83-7.19-1.44-3.31-3.08-7.14-4.77-11.14a6.67,6.67,0,1,0-12.28,5.19c1.7,4,3.37,7.91,4.82,11.26,3.75,8.64,14.07,15.18,24,15.21l13.06,0a31,31,0,0,0,4.27-61.68l-10.81-21.63c9.92-4.38,27.38-14.23,36.45-32.13a6.67,6.67,0,1,0-11.89-6c-10.22,20.18-35.49,28.13-35.73,28.21a6.66,6.66,0,0,0-4,9.36l15.77,31.58a6.67,6.67,0,0,0,6,3.68,17.66,17.66,0,0,1,0,35.31Z"/></g></g></svg>