<svg xmlns="http://www.w3.org/2000/svg" viewBox="0 0 360.02 403.19"><defs><style>.cls-1{fill:#1d1d1b;}</style></defs><g id="Layer_2" data-name="Layer 2"><g id="Ñëîé_1" data-name="Ñëîé 1"><path class="cls-1" d="M107,283.63c1.54,3.09,1.54,8.92,0,12l-4.49,9c-4.82,9.64-1.83,14.92.38,17.21a11.42,11.42,0,0,0,8.58,3.37,27.51,27.51,0,0,0,11.22-2.89l24.44-11.14c12.08,10.46,28.65,20.63,47.43,20.63,27.74,0,49.41-20,55.39-26.06,10.23-10.45,10.13-14.81,10.1-16.24-.21-9.69-31.45-42-65.49-42-18.78,0-35.35,10.17-47.43,20.63L122.72,257c-11.1-5.07-16.9-2.54-19.8.48-2.21,2.29-5.2,7.57-.38,17.21Zm139.1,6.05c-4.61,6.82-25.78,28.77-51.54,28.77-18.84,0-36-14.3-44.6-22.83a9.12,9.12,0,0,1,0-12c8.57-8.53,25.76-22.84,44.6-22.84C220.19,260.81,241.47,282.84,246.13,289.68ZM119,277.67l-4.14-8.27s-.23-1.44.82-1c.47.22,1,.41,1.55.66l20.25,9.23a22.6,22.6,0,0,0,0,22.61l-20.25,9.23c-.61.27-1.17.5-1.68.7-1.09.45-.67-1-.67-1l4.12-8.24C122.37,294.77,122.37,284.49,119,277.67Z"/><path class="cls-1" d="M223,290.85a6.67,6.67,0,0,0,0-13.34h-.11a6.62,6.62,0,0,0-6.61,6.67A6.72,6.72,0,0,0,223,290.85Z"/><path class="cls-1" d="M343.35,172.85H16.67A16.69,16.69,0,0,0,0,189.52v14.91A16.69,16.69,0,0,0,16.67,221.1h0V354.94h0A16.69,16.69,0,0,0,0,371.61v14.91a16.69,16.69,0,0,0,16.67,16.67H343.35A16.69,16.69,0,0,0,360,386.52V371.61a16.69,16.69,0,0,0-16.67-16.67h0V221.1h0A16.69,16.69,0,0,0,360,204.43V189.52A16.69,16.69,0,0,0,343.35,172.85ZM330,354.94H311.58a6.67,6.67,0,1,0,0,13.33h31.77a3.35,3.35,0,0,1,3.34,3.34v14.91a3.34,3.34,0,0,1-3.34,3.33H16.67a3.34,3.34,0,0,1-3.34-3.33V371.61a3.35,3.35,0,0,1,3.34-3.34H210a6.67,6.67,0,1,0,0-13.33H30V221.1H330Zm16.69-150.51a3.35,3.35,0,0,1-3.34,3.34H16.67a3.35,3.35,0,0,1-3.34-3.34V189.52a3.34,3.34,0,0,1,3.34-3.33H343.35a3.34,3.34,0,0,1,3.34,3.33Z"/><path class="cls-1" d="M243.26,361.61a6.67,6.67,0,0,0,6.67,6.66h26.91a6.67,6.67,0,1,0,0-13.33H249.93A6.67,6.67,0,0,0,243.26,361.61Z"/><path class="cls-1" d="M320.3,120c4,6,5,13.36,6,20.51a88.09,88.09,0,0,0,2,11.14c.57,2.12,1.19,4.24,1.81,6.33.39,1.3.77,2.6,1.13,3.88a6.68,6.68,0,0,0,6.41,4.85,6.85,6.85,0,0,0,1.83-.26,6.68,6.68,0,0,0,4.59-8.24c-.38-1.32-.77-2.65-1.17-4-.59-2-1.18-4-1.73-6a78.28,78.28,0,0,1-1.66-9.46c-1.12-8.25-2.4-17.59-8.11-26.13-4-6-10.06-10.14-15.93-14.18-4.14-2.84-8.41-5.78-11.73-9.22-2.76-2.87-5.14-6.78-7.66-10.92-3.62-6-7.73-12.71-14-17.71-5.57-4.45-12.28-6.79-18.78-9-5-1.75-9.78-3.41-13.75-5.91s-7.49-6.09-11.23-9.88c-4.84-4.89-9.83-10-16.24-13.07-7.2-3.5-15.06-4.31-22-5-4.82-.5-9.38-1-13.15-2.23-4.53-1.51-9-4.11-13.36-6.62C167.4,5.14,161,1.46,153.93.41c-10.17-1.5-19.16,1.37-27.09,3.89a80.68,80.68,0,0,1-9.25,2.57c-2.07.37-4.14.7-6.19,1C99.58,9.77,87.35,11.71,81,21.84s-2.9,22,.49,33.48c.58,2,1.18,4,1.73,6a79.68,79.68,0,0,1,1.65,9.46c1.12,8.24,2.4,17.58,8.11,26.12,4,6,10.06,10.14,15.94,14.18,4.13,2.85,8.4,5.79,11.72,9.23,2.76,2.86,5.14,6.77,7.66,10.91,3.62,6,7.73,12.71,14,17.71,5.57,4.46,12.29,6.79,18.78,9,5,1.75,9.79,3.41,13.74,5.91l.25.16a6.67,6.67,0,0,0,7.22-11.22l-.34-.21c-5.25-3.32-11-5.31-16.48-7.23-5.69-2-11.06-3.85-14.84-6.87-4.41-3.53-7.57-8.73-10.92-14.23-2.79-4.58-5.67-9.31-9.45-13.24-4.25-4.41-9.09-7.74-13.77-11-5.06-3.47-9.84-6.76-12.41-10.6-4-6-5-13.37-6-20.52a87.94,87.94,0,0,0-2-11.13c-.58-2.13-1.2-4.24-1.81-6.32-2.67-9-5.18-17.56-2-22.59s12-6.42,21.26-7.89c2.15-.34,4.32-.69,6.48-1.08a90.08,90.08,0,0,0,10.92-3c6.87-2.19,14-4.44,21.1-3.41,4.57.68,9.59,3.58,14.9,6.65,4.92,2.85,10,5.79,15.81,7.74,5.17,1.73,10.68,2.3,16,2.85,6.41.66,12.46,1.28,17.54,3.75,4.36,2.12,8.35,6.16,12.58,10.45s8.35,8.46,13.6,11.78,11,5.31,16.49,7.23c5.68,2,11.05,3.85,14.83,6.87,4.41,3.53,7.58,8.73,10.92,14.23,2.79,4.58,5.67,9.31,9.45,13.24,4.25,4.41,9.09,7.74,13.77,11C313,112.82,317.73,116.11,320.3,120Z"/><path class="cls-1" d="M229.92,85c33.85,21.09,52.9,44.24,56.76,57.82a6.68,6.68,0,0,0,6.41,4.84,6.78,6.78,0,0,0,1.83-.25,6.67,6.67,0,0,0,4.59-8.24c-5.57-19.58-30.12-45.29-62.54-65.49-39.75-24.77-89.45-39.13-103.24-17-13.17,21.13,18,57.2,55.63,81.92a6.67,6.67,0,1,0,7.33-11.14C155,100,139.66,72.36,145,63.72,151,54.21,186.12,57.7,229.92,85Z"/><path class="cls-1" d="M208.55,310.48a6.67,6.67,0,0,0,5.26-10.76,22.43,22.43,0,0,1-3.11-22.07,6.67,6.67,0,0,0-12.38-4.95,35.76,35.76,0,0,0,5,35.2A6.62,6.62,0,0,0,208.55,310.48Z"/></g></g></svg>