<svg xmlns="http://www.w3.org/2000/svg" viewBox="0 0 471.19 420.76"><defs><style>.cls-1{fill:#1d1d1b;}</style></defs><g id="Layer_2" data-name="Layer 2"><g id="Ñëîé_1" data-name="Ñëîé 1"><path class="cls-1" d="M84.09,334a6.67,6.67,0,0,0-9,3c-33.92,67.6-29,78-21.71,82.36a10,10,0,0,0,5.3,1.47c7.06,0,16.57-6.57,30.31-20.67s30.42-34.6,47.18-57.94l.95-1.32a6.67,6.67,0,1,0-10.85-7.75l-.93,1.28c-31,43.19-54.58,66.72-63.83,71.95.61-5.84,4.69-21.93,25.49-63.4A6.66,6.66,0,0,0,84.09,334Z"/><path class="cls-1" d="M281.71,270.25a6.6,6.6,0,0,0,3.43-1c20.66-12.47,37.42-31.36,54.34-61.25,10.6-18.72,16.87-34.83,22.4-49,11.86-30.47,19.7-50.59,60.56-68l2.66-1.14a6.67,6.67,0,0,0-5.28-12.24l-2.61,1.11c-46,19.61-55.61,44.24-67.75,75.43C344.09,168,338,183.59,327.88,201.47c-15.73,27.79-31,45.18-49.63,56.4a6.67,6.67,0,0,0,3.46,12.38Z"/><path class="cls-1" d="M273.34,60.78A6.62,6.62,0,0,0,277,59.69c38.18-25,93.77-53,141.72-44.94,13,2.2,23.49,8.48,28.82,17.24a6.67,6.67,0,0,0,11.4-6.92C451.59,13,437.74,4.45,420.94,1.6,368.72-7.24,309.87,22.24,269.69,48.54a6.66,6.66,0,0,0,3.65,12.24Z"/><path class="cls-1" d="M278.33,131.3a6.66,6.66,0,0,0-8.93,3c-16.3,33-88.48,92.8-132.12,122.81a6.66,6.66,0,0,0,3.78,12.16,6.6,6.6,0,0,0,3.77-1.17c36.24-24.92,117.31-89,136.52-127.9A6.67,6.67,0,0,0,278.33,131.3Z"/><path class="cls-1" d="M111.85,267.66a6.65,6.65,0,0,0,7.91-5.14c6.14-29,34.39-93.35,57.4-124.39C211.5,91.76,252,69.54,268.34,77.89A6.67,6.67,0,0,0,274.41,66c-25.4-13-70.8,14-108,64.18-24.34,32.85-53.19,98.7-59.73,129.57A6.67,6.67,0,0,0,111.85,267.66Z"/><path class="cls-1" d="M153.68,333.52A6.67,6.67,0,0,0,144.9,337c-26.57,60.84-35.6,62.42-36.54,62.39,0,0-.53-.09-1.79-1.36a6.67,6.67,0,0,0-9.43,9.43c3.5,3.51,7.26,5.27,11.21,5.27a14,14,0,0,0,2.56-.24c10.19-1.93,21.94-14.6,46.21-70.16A6.67,6.67,0,0,0,153.68,333.52Z"/><path class="cls-1" d="M24.69,324.62h374.7a24.69,24.69,0,1,0,0-49.38H279.82a6.67,6.67,0,0,0,0,13.33H399.39a11.36,11.36,0,0,1,0,22.72H24.69a11.36,11.36,0,0,1,0-22.72H179.41a6.67,6.67,0,1,0,0-13.33H24.69a24.69,24.69,0,0,0,0,49.38Z"/><path class="cls-1" d="M228.25,275.24a6.67,6.67,0,1,0,0,13.33h1.83a6.67,6.67,0,0,0,0-13.33Z"/><path class="cls-1" d="M205.38,276v17.3a6.67,6.67,0,1,0,13.33,0V276a6.67,6.67,0,1,0-13.33,0Z"/><path class="cls-1" d="M188.72,276v17.3a6.67,6.67,0,1,0,13.33,0V276a6.67,6.67,0,1,0-13.33,0Z"/><path class="cls-1" d="M256,276v17.3a6.67,6.67,0,1,0,13.33,0V276A6.67,6.67,0,1,0,256,276Z"/><path class="cls-1" d="M239.38,276v17.3a6.67,6.67,0,1,0,13.33,0V276a6.67,6.67,0,1,0-13.33,0Z"/><path class="cls-1" d="M423,39.25a6.66,6.66,0,0,0,6.66-6.66v-.22A6.57,6.57,0,0,0,423,25.81a6.77,6.77,0,0,0-6.67,6.78A6.67,6.67,0,0,0,423,39.25Z"/><path class="cls-1" d="M450.36,37a6.62,6.62,0,0,0-5.44-.26,32.74,32.74,0,0,0-20.71,34.1,6.66,6.66,0,0,0,4.28,5.46,12.81,12.81,0,0,1,8.26,11.91,12.66,12.66,0,0,1-3.59,8.83,6.65,6.65,0,0,0,5.78,11.23A37.87,37.87,0,0,0,450.36,37Zm-.28,51.68v-.47a26.21,26.21,0,0,0-12.69-22.35A19.41,19.41,0,0,1,447,50.49a24.47,24.47,0,0,1,3.05,38.21Z"/></g></g></svg>