<svg xmlns="http://www.w3.org/2000/svg" viewBox="0 0 530.85 435.63"><defs><style>.cls-1{fill:#1d1d1b;}</style></defs><g id="Layer_2" data-name="Layer 2"><g id="Ñëîé_1" data-name="Ñëîé 1"><path class="cls-1" d="M496.05,214l-37.77-84.66c-8.6-19.28-31.88-34.39-53-34.39H124.41c-21.11,0-44.39,15.11-53,34.39L33.63,214a0,0,0,0,1,0,0A36.69,36.69,0,0,0,0,250.52V280a36.69,36.69,0,0,0,34,36.53l37.78,84.69c8.6,19.29,31.89,34.4,53,34.4H405.64c21.11,0,44.4-15.11,53-34.4l37.78-84.67A36.68,36.68,0,0,0,530.85,280V250.52A36.68,36.68,0,0,0,496.05,214ZM83.59,134.72c6.4-14.36,25.1-26.49,40.82-26.49H405.28c15.72,0,34.42,12.13,40.83,26.49l35.3,79.13H48.28ZM446.46,395.8c-6.4,14.36-25.1,26.49-40.82,26.49H124.77c-15.72,0-34.42-12.13-40.82-26.49l-35.3-79.13H481.76ZM517.52,280a23.36,23.36,0,0,1-23.33,23.33H36.67A23.36,23.36,0,0,1,13.33,280V250.52a23.36,23.36,0,0,1,23.34-23.33H494.19a23.36,23.36,0,0,1,23.33,23.33Z"/><path class="cls-1" d="M387.71,167.52H440.3a6.67,6.67,0,1,0,0-13.33H387.71a6.67,6.67,0,1,0,0,13.33Z"/><path class="cls-1" d="M317.23,167.52h35.51a6.67,6.67,0,1,0,0-13.33H317.23a6.67,6.67,0,0,0,0,13.33Z"/><path class="cls-1" d="M247,167.52h35.23a6.67,6.67,0,1,0,0-13.33H247a6.67,6.67,0,0,0,0,13.33Z"/><path class="cls-1" d="M177.6,167.52h35.52a6.67,6.67,0,1,0,0-13.33H177.6a6.67,6.67,0,0,0,0,13.33Z"/><path class="cls-1" d="M89.78,167.52h52.4a6.67,6.67,0,1,0,0-13.33H89.78a6.67,6.67,0,1,0,0,13.33Z"/><path class="cls-1" d="M370.21,206.14a6.67,6.67,0,0,0,6.67-6.67V122.24a6.67,6.67,0,0,0-13.34,0v77.23A6.67,6.67,0,0,0,370.21,206.14Z"/><path class="cls-1" d="M300.13,206.14a6.67,6.67,0,0,0,6.66-6.67V122.24a6.67,6.67,0,1,0-13.33,0v77.23A6.67,6.67,0,0,0,300.13,206.14Z"/><path class="cls-1" d="M230,206.14a6.67,6.67,0,0,0,6.67-6.67V122.24a6.67,6.67,0,1,0-13.33,0v77.23A6.67,6.67,0,0,0,230,206.14Z"/><path class="cls-1" d="M159.86,206.14a6.67,6.67,0,0,0,6.67-6.67V122.24a6.67,6.67,0,1,0-13.33,0v77.23A6.67,6.67,0,0,0,159.86,206.14Z"/><path class="cls-1" d="M155.89,329a21.15,21.15,0,0,0-21.12,21.13v35.59a21.12,21.12,0,0,0,42.24,0V350.13A21.15,21.15,0,0,0,155.89,329Zm7.79,56.72a7.79,7.79,0,0,1-15.58,0V350.13a7.79,7.79,0,0,1,15.58,0Z"/><path class="cls-1" d="M228.91,329a21.15,21.15,0,0,0-21.12,21.13v35.59a21.13,21.13,0,0,0,42.25,0V350.13A21.16,21.16,0,0,0,228.91,329Zm7.8,56.72a7.8,7.8,0,0,1-15.59,0V350.13a7.8,7.8,0,0,1,15.59,0Z"/><path class="cls-1" d="M301.94,329a21.16,21.16,0,0,0-21.13,21.13v35.59a21.13,21.13,0,0,0,42.25,0V350.13A21.15,21.15,0,0,0,301.94,329Zm7.79,56.72a7.79,7.79,0,1,1-15.58,0V350.13a7.79,7.79,0,0,1,15.58,0Z"/><path class="cls-1" d="M375,329a21.15,21.15,0,0,0-21.12,21.13v35.59a21.13,21.13,0,0,0,42.25,0V350.13A21.16,21.16,0,0,0,375,329Zm7.79,56.72a7.79,7.79,0,0,1-15.58,0V350.13a7.79,7.79,0,0,1,15.58,0Z"/><path class="cls-1" d="M504.4,258.6H434.69a6.67,6.67,0,1,0,0,13.33H504.4a6.67,6.67,0,1,0,0-13.33Z"/><path class="cls-1" d="M401.88,258.6H378.1a6.67,6.67,0,1,0,0,13.33h23.78a6.67,6.67,0,0,0,0-13.33Z"/><path class="cls-1" d="M323.14,258.6H28.69a6.67,6.67,0,1,0,0,13.33H323.14a6.67,6.67,0,1,0,0-13.33Z"/><path class="cls-1" d="M323.92,89.14a6.67,6.67,0,0,0,6.66-6.67V52.89A22.91,22.91,0,0,0,307.7,30H227.41a22.92,22.92,0,0,0-22.89,22.89V82.47a6.67,6.67,0,0,0,13.34,0V52.89a9.57,9.57,0,0,1,9.55-9.56H307.7a9.57,9.57,0,0,1,9.55,9.56V82.47A6.67,6.67,0,0,0,323.92,89.14Z"/><path class="cls-1" d="M353.92,89.14a6.67,6.67,0,0,0,6.66-6.67V52.89A52.94,52.94,0,0,0,307.7,0H227.41a53,53,0,0,0-52.89,52.89V82.47a6.67,6.67,0,0,0,13.34,0V52.89a39.6,39.6,0,0,1,39.55-39.56H307.7a39.61,39.61,0,0,1,39.55,39.56V82.47A6.67,6.67,0,0,0,353.92,89.14Z"/></g></g></svg>