<svg xmlns="http://www.w3.org/2000/svg" viewBox="0 0 423.53 493.57"><defs><style>.cls-1{fill:#1d1d1b;}</style></defs><g id="Layer_2" data-name="Layer 2"><g id="Ñëîé_1" data-name="Ñëîé 1"><path class="cls-1" d="M345.94,348.4a6.68,6.68,0,0,0-8.09,4.83,60.34,60.34,0,0,1-115.31,5.49c-.86-2.4-3.46-9.71-10.16-9.71s-9.31,7.31-10.17,9.71a60.33,60.33,0,0,1-115.58-6.67,6.67,6.67,0,1,0-13,3,73.48,73.48,0,0,0,94.64,53.33v41.09a44.1,44.1,0,0,0,88.2,0V408.38a73.49,73.49,0,0,0,94.3-51.88A6.68,6.68,0,0,0,345.94,348.4ZM243.15,449.47a30.77,30.77,0,0,1-61.54,0v-47a73.73,73.73,0,0,0,30.77-33.41,73.68,73.68,0,0,0,30.77,33.41Z"/><path class="cls-1" d="M212.38,398.75a6.67,6.67,0,0,0-6.67,6.66v41.17a6.67,6.67,0,0,0,13.34,0V405.41A6.67,6.67,0,0,0,212.38,398.75Z"/><path class="cls-1" d="M211.76,242.76a43.23,43.23,0,0,0-42.21,34.39c-1.49,7.21,3.21,15,8.6,18.27L202,310.07a19.81,19.81,0,0,0,19.62,0l23.8-14.65c5.39-3.32,10.08-11.06,8.6-18.27A43.23,43.23,0,0,0,211.76,242.76Zm26.62,41.3-23.8,14.66a5.91,5.91,0,0,1-2.82.62,5.84,5.84,0,0,1-2.82-.62l-23.8-14.66c-1.46-.9-2.68-3.36-2.53-4.23a29.77,29.77,0,0,1,58.3,0C241.06,280.7,239.84,283.16,238.38,284.06Z"/><path class="cls-1" d="M150.26,170.31V175a6.67,6.67,0,1,0,13.33,0v-4.67a6.67,6.67,0,1,0-13.33,0Z"/><path class="cls-1" d="M257,170.31V175a6.67,6.67,0,0,0,13.34,0v-4.67a6.67,6.67,0,0,0-13.34,0Z"/><path class="cls-1" d="M104.42,232.08c15.13-70.44,24.68-145.29,25.75-172.24.21-5.13-.83-8.8-3.16-11.23a8.91,8.91,0,0,0-6.49-2.76c-3.51,0-7,1.88-11.1,5.91C-12.32,172.61-9,290.66,9.76,336.19,17.83,355.78,30.07,367,43.35,367,56.17,367,67.49,353.2,79,323.54,87.61,301.31,96.16,270.54,104.42,232.08ZM44.89,353.34a7.74,7.74,0,0,1-2.67.28c-7.07-.82-14.68-9.29-20.13-22.51C1.79,281.84,10.42,170.22,116.64,63.39c-1.76,29.39-11,99.49-25.26,165.9C68.55,335.59,50.43,351.13,44.89,353.34Z"/><path class="cls-1" d="M314.11,51.76c-4.06-4-7.59-5.91-11.1-5.91a8.91,8.91,0,0,0-6.49,2.76c-2.33,2.43-3.36,6.1-3.16,11.23,1.07,27,10.62,101.8,25.75,172.24,8.26,38.46,16.82,69.23,25.43,91.46C356,353.2,367.36,367,380.18,367c13.28,0,25.52-11.24,33.59-30.83C432.54,290.66,435.85,172.61,314.11,51.76Zm87.33,279.35c-5.45,13.22-13.06,21.69-20.13,22.51a7.74,7.74,0,0,1-2.67-.28c-5.54-2.21-23.66-17.75-46.49-124-14.26-66.41-23.5-136.51-25.26-165.9C413.11,170.22,421.75,281.84,401.44,331.11Z"/><path class="cls-1" d="M130,40.85a6.63,6.63,0,0,0,4.72-2,86.11,86.11,0,0,1,61.45-25.55h31.89a86.23,86.23,0,0,1,60.42,24.53,6.67,6.67,0,0,0,9.3-9.56A99.49,99.49,0,0,0,228.05,0H196.16a99.33,99.33,0,0,0-70.9,29.48A6.67,6.67,0,0,0,130,40.85Z"/></g></g></svg>