<svg xmlns="http://www.w3.org/2000/svg" viewBox="0 0 387.01 483.57"><defs><style>.cls-1{fill:#1d1d1b;}</style></defs><g id="Layer_2" data-name="Layer 2"><g id="Ñëîé_1" data-name="Ñëîé 1"><path class="cls-1" d="M279.68,359.46a6.66,6.66,0,0,0-8.89-3.15,180.63,180.63,0,0,1-154,.27,6.67,6.67,0,0,0-5.68,12.06,193.93,193.93,0,0,0,165.41-.3A6.66,6.66,0,0,0,279.68,359.46Z"/><path class="cls-1" d="M193.51,0C86.81,0,0,86.81,0,193.51a192.72,192.72,0,0,0,72.37,150.9A6.67,6.67,0,1,0,80.73,334a179.45,179.45,0,0,1-67.4-140.51c0-99.35,80.83-180.18,180.18-180.18S373.68,94.16,373.68,193.51a179.53,179.53,0,0,1-66.76,140,6.67,6.67,0,1,0,8.4,10.36A192.85,192.85,0,0,0,387,193.51C387,86.81,300.21,0,193.51,0Z"/><path class="cls-1" d="M59.83,137.36a6.68,6.68,0,0,0,6-3.82,141.65,141.65,0,0,1,66.5-67.11,6.67,6.67,0,1,0-5.79-12A155.13,155.13,0,0,0,53.8,127.86a6.66,6.66,0,0,0,6,9.5Z"/><path class="cls-1" d="M46.7,176.2a6.74,6.74,0,0,0-7.12,6.18c-.26,3.67-.4,7.41-.4,11.13a154.94,154.94,0,0,0,4.68,37.83,6.66,6.66,0,0,0,6.46,5,6.55,6.55,0,0,0,1.63-.2,6.68,6.68,0,0,0,4.84-8.1,141.15,141.15,0,0,1-4.27-34.57c0-3.4.12-6.83.36-10.18A6.67,6.67,0,0,0,46.7,176.2Z"/><path class="cls-1" d="M30,406.35a30,30,0,0,0-30,30v17.22a30,30,0,0,0,30,30H357a30,30,0,0,0,30-30V436.35a30,30,0,0,0-30-30H334.74L218.2,224.5a39.68,39.68,0,1,0-49.39,0L52.27,406.35Zm343.68,30v17.22A16.68,16.68,0,0,1,357,470.23H30a16.68,16.68,0,0,1-16.67-16.66V436.35A16.69,16.69,0,0,1,30,419.68H357A16.69,16.69,0,0,1,373.68,436.35ZM193.51,167.16a26.35,26.35,0,1,1-26.35,26.35A26.38,26.38,0,0,1,193.51,167.16Zm-13,63.79a39,39,0,0,0,26,0l112.41,175.4H68.11Z"/></g></g></svg>