<svg xmlns="http://www.w3.org/2000/svg" viewBox="0 0 513.57 281.99"><defs><style>.cls-1{fill:#1d1d1b;}</style></defs><g id="Layer_2" data-name="Layer 2"><g id="Ñëîé_1" data-name="Ñëîé 1"><path class="cls-1" d="M31.94,282h449.7a32,32,0,0,0,31.93-31.94V223.57a32,32,0,0,0-28.68-31.78L442.44,113.5c-3.42-6.3-11.41-11-18.58-11H89.71c-7.17,0-15.16,4.75-18.57,11L28.68,191.79A32,32,0,0,0,0,223.57v26.48A32,32,0,0,0,31.94,282ZM13.33,223.57A18.63,18.63,0,0,1,31.94,205H337.35a6.67,6.67,0,1,0,0-13.33H43.94l38.92-71.77a9.44,9.44,0,0,1,6.85-4.08H423.86a9.48,9.48,0,0,1,6.86,4.08l38.92,71.77H442.32a6.67,6.67,0,0,0,0,13.33h39.32a18.63,18.63,0,0,1,18.6,18.61v26.48a18.62,18.62,0,0,1-18.6,18.6H31.94a18.62,18.62,0,0,1-18.61-18.6Z"/><path class="cls-1" d="M390.59,205h21.09a6.67,6.67,0,1,0,0-13.33H390.59a6.67,6.67,0,1,0,0,13.33Z"/><path class="cls-1" d="M110.49,124.37a6.66,6.66,0,0,0-9,2.68c-7.5,13.82-17.32,32-25.23,46.62A6.67,6.67,0,0,0,88,180c7.9-14.65,17.72-32.78,25.21-46.59A6.67,6.67,0,0,0,110.49,124.37Z"/><path class="cls-1" d="M213.85,13.33A37,37,0,0,1,248,36a6.65,6.65,0,0,0,7.61,3.9,58.41,58.41,0,0,1,12.85-1.45A57.62,57.62,0,0,1,323,77.53a6.67,6.67,0,0,0,10,3.38,48.34,48.34,0,0,1,27.17-8.29,48.85,48.85,0,0,1,39.14,19.76,6.67,6.67,0,0,0,10.73-7.92,62,62,0,0,0-77.48-18.7,70.89,70.89,0,0,0-74.75-39.88A50.4,50.4,0,0,0,163.45,50.4c0,.67,0,1.36.05,2a56.74,56.74,0,0,0-6.24-.35A57.35,57.35,0,0,0,104.2,87.45a6.66,6.66,0,1,0,12.3,5.13A44,44,0,0,1,169.56,67.2a6.66,6.66,0,0,0,8.33-8,36.93,36.93,0,0,1,36-45.88Z"/></g></g></svg>