<?xml version="1.0" encoding="UTF-8"?>
<svg xmlns="http://www.w3.org/2000/svg" xmlns:xlink="http://www.w3.org/1999/xlink" width="104.88pt" height="104.999996pt" viewBox="0 0 104.88 104.999996" version="1.2">
<defs>
<clipPath id="clip1">
  <path d="M 0 0.0585938 L 104.761719 0.0585938 L 104.761719 104.9375 L 0 104.9375 Z M 0 0.0585938 "/>
</clipPath>
<clipPath id="clip2">
  <path d="M 10.742188 15.578125 L 93.898438 15.578125 L 93.898438 89.742188 L 10.742188 89.742188 Z M 10.742188 15.578125 "/>
</clipPath>
</defs>
<g id="surface1">
<g clip-path="url(#clip1)" clip-rule="nonzero">
<path style=" stroke:none;fill-rule:nonzero;fill:rgb(100%,100%,100%);fill-opacity:1;" d="M 0 0.0585938 L 104.878906 0.0585938 L 104.878906 112.429688 L 0 112.429688 Z M 0 0.0585938 "/>
<path style=" stroke:none;fill-rule:nonzero;fill:rgb(100%,100%,100%);fill-opacity:1;" d="M 0 0.0585938 L 104.878906 0.0585938 L 104.878906 104.941406 L 0 104.941406 Z M 0 0.0585938 "/>
<path style=" stroke:none;fill-rule:nonzero;fill:rgb(19.999695%,19.999695%,19.999695%);fill-opacity:1;" d="M 0 0.0585938 L 104.878906 0.0585938 L 104.878906 104.941406 L 0 104.941406 Z M 0 0.0585938 "/>
</g>
<g clip-path="url(#clip2)" clip-rule="nonzero">
<path style=" stroke:none;fill-rule:nonzero;fill:rgb(53.729248%,69.018555%,68.238831%);fill-opacity:1;" d="M 52.320312 89.742188 L 51.4375 89.140625 C 51.339844 89.074219 41.214844 82.109375 31.238281 72.480469 C 25.355469 66.785156 20.648438 61.292969 17.257812 56.136719 C 12.953125 49.539062 10.757812 43.425781 10.757812 38 C 10.757812 25.644531 20.75 15.578125 33.019531 15.578125 C 37.574219 15.578125 41.980469 16.984375 45.738281 19.664062 C 48.464844 21.605469 50.691406 24.085938 52.320312 26.933594 C 53.949219 24.070312 56.175781 21.589844 58.902344 19.664062 C 62.660156 16.984375 67.066406 15.578125 71.621094 15.578125 C 83.890625 15.578125 93.882812 25.644531 93.882812 38 L 93.882812 38.019531 C 93.832031 43.410156 91.621094 49.472656 87.296875 56.050781 C 83.90625 61.210938 79.21875 66.703125 73.332031 72.414062 C 63.375 82.074219 53.300781 89.074219 53.203125 89.140625 Z M 33.019531 18.710938 C 22.460938 18.710938 13.867188 27.367188 13.867188 38 C 13.867188 42.808594 15.878906 48.316406 19.851562 54.378906 C 23.09375 59.335938 27.648438 64.660156 33.367188 70.183594 C 41.464844 78.003906 49.675781 84.050781 52.320312 85.925781 C 54.964844 84.035156 63.125 77.957031 71.207031 70.117188 C 76.90625 64.574219 81.445312 59.265625 84.703125 54.3125 C 88.679688 48.25 90.722656 42.773438 90.757812 38 C 90.757812 27.367188 82.160156 18.726562 71.605469 18.726562 C 63.773438 18.726562 56.609375 23.71875 53.75 31.152344 L 52.304688 34.9375 L 50.875 31.152344 C 48.015625 23.71875 40.847656 18.710938 33.019531 18.710938 Z M 33.019531 18.710938 "/>
</g>
</g>
</svg>
