<?xml version="1.0" encoding="UTF-8"?>
<svg xmlns="http://www.w3.org/2000/svg" xmlns:xlink="http://www.w3.org/1999/xlink" width="75pt" height="74.999997pt" viewBox="0 0 75 74.999997" version="1.2">
<defs>
<clipPath id="clip1">
  <path d="M 7.683594 11.097656 L 67.683594 11.097656 L 67.683594 63.597656 L 7.683594 63.597656 Z M 7.683594 11.097656 "/>
</clipPath>
</defs>
<g id="surface1">
<rect x="0" y="0" width="75" height="74.999997" style="fill:rgb(100%,100%,100%);fill-opacity:1;stroke:none;"/>
<rect x="0" y="0" width="75" height="74.999997" style="fill:rgb(100%,100%,100%);fill-opacity:1;stroke:none;"/>
<rect x="0" y="0" width="75" height="74.999997" style="fill:rgb(19.999695%,19.999695%,19.999695%);fill-opacity:1;stroke:none;"/>
<g clip-path="url(#clip1)" clip-rule="nonzero">
<path style=" stroke:none;fill-rule:nonzero;fill:rgb(53.729248%,69.018555%,68.238831%);fill-opacity:1;" d="M 37.683594 63.597656 L 37.046875 63.171875 C 36.972656 63.125 29.667969 58.191406 22.46875 51.375 C 18.222656 47.347656 14.828125 43.457031 12.378906 39.808594 C 9.273438 35.136719 7.6875 30.808594 7.6875 26.96875 C 7.6875 18.222656 14.898438 11.097656 23.753906 11.097656 C 27.039062 11.097656 30.21875 12.09375 32.929688 13.988281 C 34.898438 15.363281 36.507812 17.121094 37.683594 19.132812 C 38.859375 17.109375 40.464844 15.351562 42.433594 13.988281 C 45.144531 12.09375 48.324219 11.097656 51.609375 11.097656 C 60.464844 11.097656 67.675781 18.222656 67.675781 26.96875 L 67.675781 26.980469 C 67.640625 30.796875 66.042969 35.089844 62.925781 39.746094 C 60.476562 43.398438 57.09375 47.285156 52.847656 51.328125 C 45.660156 58.167969 38.390625 63.125 38.316406 63.171875 Z M 23.753906 13.3125 C 16.132812 13.3125 9.933594 19.441406 9.933594 26.96875 C 9.933594 30.371094 11.382812 34.273438 14.25 38.5625 C 16.589844 42.070312 19.878906 45.839844 24.003906 49.753906 C 29.847656 55.289062 35.773438 59.566406 37.683594 60.894531 C 39.589844 59.554688 45.480469 55.253906 51.3125 49.703125 C 55.425781 45.78125 58.703125 42.023438 61.054688 38.515625 C 63.921875 34.222656 65.394531 30.347656 65.421875 26.96875 C 65.421875 19.441406 59.21875 13.324219 51.597656 13.324219 C 45.949219 13.324219 40.777344 16.859375 38.714844 22.121094 L 37.671875 24.800781 L 36.636719 22.121094 C 34.574219 16.859375 29.402344 13.3125 23.753906 13.3125 Z M 23.753906 13.3125 "/>
</g>
</g>
</svg>
